<?xml version="1.0" encoding="utf-8"?>
<!-- Generator: Adobe Illustrator 19.1.0, SVG Export Plug-In . SVG Version: 6.00 Build 0)  -->
<svg version="1.1" id="Layer_1" xmlns="http://www.w3.org/2000/svg" xmlns:xlink="http://www.w3.org/1999/xlink" x="0px" y="0px"
	 viewBox="0 0 238 75.5" style="enable-background:new 0 0 238 75.5;" xml:space="preserve">
<style type="text/css">
	.st0{fill-rule:evenodd;clip-rule:evenodd;}
	.st1{stroke:#000000;stroke-width:0.5615;stroke-miterlimit:3.8637;}
</style>
<path class="st0" d="M83.5,30h-2.7l-0.3,0.7c-0.1,0.2-0.2,0.5-0.2,0.6c0,0.2,0.1,0.4,0.3,0.5c0.1,0.1,0.4,0.1,0.8,0.1v0.2h-2.6V32
	c0.3,0,0.5-0.2,0.7-0.3c0.2-0.2,0.4-0.6,0.7-1.2l2.8-6.1h0.1l2.8,6.3c0.3,0.6,0.5,1,0.7,1.1c0.1,0.1,0.3,0.2,0.5,0.2v0.2h-3.7V32
	h0.2c0.3,0,0.5,0,0.6-0.1c0.1-0.1,0.1-0.1,0.1-0.3c0-0.1,0-0.1,0-0.2c0,0-0.1-0.2-0.2-0.4L83.5,30L83.5,30z M83.3,29.6L82.1,27
	L81,29.6H83.3L83.3,29.6z"/>
<path d="M91.6,26.9v4.2c0,0.4,0,0.7,0.1,0.8c0.1,0.1,0.2,0.2,0.5,0.2v0.2H90v-0.7c-0.3,0.3-0.5,0.5-0.8,0.7
	c-0.3,0.1-0.5,0.2-0.9,0.2c-0.3,0-0.6-0.1-0.8-0.3c-0.2-0.2-0.4-0.4-0.5-0.6c-0.1-0.2-0.1-0.7-0.1-1.3v-2.1c0-0.4,0-0.7-0.1-0.7
	c-0.1-0.1-0.2-0.2-0.5-0.2v-0.2h2.2v3.6c0,0.4,0,0.6,0.1,0.7c0,0.1,0.1,0.2,0.2,0.2c0.1,0.1,0.2,0.1,0.3,0.1c0.1,0,0.3,0,0.4-0.1
	c0.2-0.1,0.3-0.3,0.5-0.6v-2.8c0-0.4,0-0.7-0.1-0.7c-0.1-0.1-0.2-0.2-0.5-0.2v-0.2H91.6L91.6,26.9z"/>
<path d="M95.9,26.8l0.1,1.8h-0.2c-0.2-0.5-0.5-0.9-0.7-1.1c-0.2-0.2-0.5-0.3-0.7-0.3c-0.2,0-0.3,0.1-0.4,0.2
	c-0.1,0.1-0.2,0.2-0.2,0.4c0,0.1,0,0.2,0.1,0.3c0.1,0.2,0.5,0.4,1,0.8c0.6,0.4,0.9,0.7,1.1,1c0.2,0.3,0.3,0.6,0.3,0.9
	c0,0.3-0.1,0.6-0.2,0.9c-0.1,0.3-0.4,0.5-0.6,0.7c-0.3,0.2-0.6,0.2-0.9,0.2c-0.3,0-0.6-0.1-1-0.2c-0.1,0-0.2-0.1-0.2-0.1
	c-0.1,0-0.2,0.1-0.3,0.3h-0.2l-0.1-1.9h0.2c0.2,0.5,0.4,0.9,0.7,1.1c0.3,0.2,0.6,0.4,0.8,0.4c0.2,0,0.3-0.1,0.4-0.2
	c0.1-0.1,0.2-0.2,0.2-0.4c0-0.2-0.1-0.3-0.2-0.5c-0.1-0.1-0.4-0.3-0.8-0.6c-0.6-0.4-1-0.7-1.1-0.9c-0.2-0.3-0.4-0.7-0.4-1
	c0-0.4,0.1-0.8,0.4-1.1c0.3-0.3,0.7-0.5,1.2-0.5c0.3,0,0.6,0.1,0.8,0.2c0.1,0.1,0.2,0.1,0.2,0.1c0.1,0,0.1,0,0.2,0
	c0,0,0.1-0.1,0.2-0.2H95.9L95.9,26.8z"/>
<path d="M98.7,25v1.9h1.3v0.6h-1.3v3.3c0,0.3,0,0.5,0,0.6c0,0.1,0.1,0.2,0.2,0.2c0.1,0.1,0.1,0.1,0.2,0.1c0.2,0,0.5-0.2,0.7-0.6
	l0.2,0.1c-0.3,0.7-0.8,1.1-1.5,1.1c-0.3,0-0.6-0.1-0.9-0.3c-0.2-0.2-0.4-0.4-0.4-0.6c0-0.1-0.1-0.5-0.1-1v-2.9h-0.7v-0.2
	c0.5-0.3,0.9-0.7,1.2-1.1c0.3-0.4,0.6-0.8,0.9-1.2H98.7L98.7,25z"/>
<path d="M102.6,26.9v1.2c0.4-0.5,0.7-0.9,0.9-1.1c0.3-0.2,0.5-0.3,0.8-0.3c0.2,0,0.4,0.1,0.5,0.2c0.1,0.1,0.2,0.3,0.2,0.5
	c0,0.3-0.1,0.5-0.2,0.6c-0.1,0.1-0.3,0.2-0.4,0.2c-0.2,0-0.4-0.1-0.5-0.2c-0.1-0.1-0.2-0.2-0.3-0.2c0,0-0.1,0-0.1,0
	c-0.1,0-0.2,0-0.3,0.1c-0.2,0.1-0.3,0.3-0.4,0.6c-0.1,0.4-0.2,0.8-0.2,1.2V31l0,0.3c0,0.2,0,0.4,0,0.4c0,0.1,0.1,0.2,0.2,0.2
	c0.1,0,0.2,0.1,0.5,0.1v0.2h-2.9V32c0.2,0,0.4-0.1,0.5-0.2c0.1-0.1,0.1-0.4,0.1-0.9V28c0-0.3,0-0.5,0-0.6c0-0.1-0.1-0.2-0.2-0.2
	c-0.1,0-0.2-0.1-0.4-0.1v-0.2H102.6L102.6,26.9z"/>
<path class="st0" d="M107.9,31.4c-0.6,0.6-1.2,0.9-1.7,0.9c-0.3,0-0.6-0.1-0.8-0.3c-0.2-0.2-0.3-0.4-0.3-0.7c0-0.4,0.2-0.8,0.5-1.1
	c0.3-0.3,1.1-0.8,2.3-1.3v-0.5c0-0.4,0-0.7-0.1-0.8c0-0.1-0.1-0.2-0.2-0.3c-0.1-0.1-0.3-0.1-0.4-0.1c-0.2,0-0.4,0.1-0.6,0.2
	c-0.1,0.1-0.1,0.1-0.1,0.2c0,0.1,0.1,0.2,0.2,0.3c0.1,0.2,0.2,0.3,0.2,0.5c0,0.2-0.1,0.3-0.2,0.5c-0.1,0.1-0.3,0.2-0.5,0.2
	c-0.2,0-0.4-0.1-0.6-0.2c-0.2-0.1-0.2-0.3-0.2-0.5c0-0.3,0.1-0.5,0.3-0.8c0.2-0.2,0.5-0.4,0.9-0.6c0.4-0.1,0.8-0.2,1.2-0.2
	c0.5,0,0.9,0.1,1.2,0.3c0.3,0.2,0.5,0.4,0.6,0.7c0.1,0.2,0.1,0.5,0.1,1.1v2.1c0,0.2,0,0.4,0,0.5c0,0.1,0,0.1,0.1,0.1
	c0,0,0.1,0,0.1,0c0.1,0,0.2-0.1,0.3-0.2l0.2,0.1c-0.2,0.3-0.4,0.5-0.6,0.6c-0.2,0.1-0.4,0.2-0.7,0.2c-0.3,0-0.5-0.1-0.7-0.2
	C108,32,107.9,31.7,107.9,31.4L107.9,31.4z M107.9,31v-1.8c-0.5,0.3-0.8,0.6-1,0.9c-0.1,0.2-0.2,0.4-0.2,0.6c0,0.2,0.1,0.3,0.2,0.5
	c0.1,0.1,0.2,0.2,0.4,0.2C107.4,31.4,107.6,31.2,107.9,31L107.9,31z"/>
<path d="M112.5,24.5v6.6c0,0.4,0,0.6,0.1,0.7c0.1,0.1,0.3,0.2,0.5,0.2v0.2h-2.9V32c0.2,0,0.4-0.1,0.5-0.2c0.1-0.1,0.1-0.3,0.1-0.7
	v-5.5c0-0.4,0-0.6-0.1-0.7c-0.1-0.1-0.3-0.2-0.5-0.2v-0.2H112.5L112.5,24.5z"/>
<path class="st0" d="M114.9,24.4c0.2,0,0.5,0.1,0.6,0.3c0.2,0.2,0.3,0.4,0.3,0.6c0,0.2-0.1,0.4-0.3,0.6c-0.2,0.2-0.4,0.3-0.6,0.3
	c-0.2,0-0.4-0.1-0.6-0.3c-0.2-0.2-0.3-0.4-0.3-0.6c0-0.2,0.1-0.4,0.3-0.6C114.5,24.4,114.7,24.4,114.9,24.4L114.9,24.4z M115.7,26.9
	v4.2c0,0.4,0,0.6,0.1,0.7c0.1,0.1,0.3,0.2,0.5,0.2v0.2h-2.9V32c0.2,0,0.4-0.1,0.5-0.2c0.1-0.1,0.1-0.3,0.1-0.7V28
	c0-0.4,0-0.6-0.1-0.7c-0.1-0.1-0.3-0.2-0.5-0.2v-0.2H115.7L115.7,26.9z"/>
<path class="st0" d="M119.4,31.4c-0.6,0.6-1.2,0.9-1.7,0.9c-0.3,0-0.6-0.1-0.8-0.3c-0.2-0.2-0.3-0.4-0.3-0.7c0-0.4,0.2-0.8,0.5-1.1
	c0.3-0.3,1.1-0.8,2.3-1.3v-0.5c0-0.4,0-0.7-0.1-0.8c0-0.1-0.1-0.2-0.2-0.3c-0.1-0.1-0.3-0.1-0.4-0.1c-0.2,0-0.4,0.1-0.6,0.2
	c-0.1,0.1-0.1,0.1-0.1,0.2c0,0.1,0.1,0.2,0.2,0.3c0.1,0.2,0.2,0.3,0.2,0.5c0,0.2-0.1,0.3-0.2,0.5c-0.1,0.1-0.3,0.2-0.5,0.2
	c-0.2,0-0.4-0.1-0.6-0.2c-0.2-0.1-0.2-0.3-0.2-0.5c0-0.3,0.1-0.5,0.3-0.8c0.2-0.2,0.5-0.4,0.9-0.6c0.4-0.1,0.8-0.2,1.2-0.2
	c0.5,0,0.9,0.1,1.2,0.3c0.3,0.2,0.5,0.4,0.6,0.7c0.1,0.2,0.1,0.5,0.1,1.1v2.1c0,0.2,0,0.4,0,0.5c0,0.1,0,0.1,0.1,0.1
	c0,0,0.1,0,0.1,0c0.1,0,0.2-0.1,0.3-0.2l0.2,0.1c-0.2,0.3-0.4,0.5-0.6,0.6c-0.2,0.1-0.4,0.2-0.7,0.2c-0.3,0-0.5-0.1-0.7-0.2
	C119.6,32,119.5,31.7,119.4,31.4L119.4,31.4z M119.4,31v-1.8c-0.5,0.3-0.8,0.6-1,0.9c-0.1,0.2-0.2,0.4-0.2,0.6
	c0,0.2,0.1,0.3,0.2,0.5c0.1,0.1,0.2,0.2,0.4,0.2C119,31.4,119.2,31.2,119.4,31L119.4,31z"/>
<path d="M124,26.9v0.7c0.3-0.3,0.5-0.5,0.8-0.6c0.2-0.1,0.5-0.2,0.8-0.2c0.3,0,0.6,0.1,0.9,0.3c0.2,0.2,0.4,0.4,0.5,0.7
	C127,28,127,28.4,127,29v2.1c0,0.4,0,0.7,0.1,0.8c0.1,0.1,0.2,0.2,0.5,0.2v0.2h-2.7V32c0.2,0,0.3-0.1,0.4-0.3
	c0.1-0.1,0.1-0.3,0.1-0.7v-2.4c0-0.4,0-0.7-0.1-0.8c0-0.1-0.1-0.2-0.2-0.3c-0.1-0.1-0.2-0.1-0.3-0.1c-0.3,0-0.6,0.2-0.9,0.7v2.8
	c0,0.4,0,0.6,0.1,0.8c0.1,0.1,0.2,0.2,0.4,0.2v0.2h-2.7V32c0.2,0,0.4-0.1,0.5-0.2c0.1-0.1,0.1-0.3,0.1-0.7v-3c0-0.4,0-0.7-0.1-0.7
	c-0.1-0.1-0.2-0.2-0.5-0.2v-0.2H124L124,26.9z"/>
<path d="M138,24.4v2.7h-0.2c-0.3-0.7-0.6-1.3-1.1-1.7c-0.5-0.4-1.1-0.6-1.7-0.6c-0.6,0-1.1,0.2-1.4,0.5c-0.4,0.3-0.7,0.8-0.8,1.4
	c-0.2,0.6-0.2,1.2-0.2,1.8c0,0.7,0.1,1.4,0.3,1.9c0.2,0.6,0.5,1,0.8,1.2c0.4,0.3,0.9,0.4,1.4,0.4c0.2,0,0.4,0,0.6-0.1
	c0.2,0,0.4-0.1,0.6-0.2v-1.6c0-0.3,0-0.5-0.1-0.6c0-0.1-0.1-0.2-0.3-0.2c-0.1-0.1-0.3-0.1-0.5-0.1h-0.2V29h3.7v0.2
	c-0.3,0-0.5,0.1-0.6,0.1c-0.1,0.1-0.2,0.2-0.3,0.3c0,0.1-0.1,0.2-0.1,0.5v1.6c-0.5,0.2-1,0.4-1.5,0.5c-0.5,0.1-1.1,0.2-1.7,0.2
	c-0.7,0-1.3-0.1-1.8-0.3c-0.5-0.2-0.9-0.5-1.3-0.8c-0.4-0.3-0.7-0.7-0.9-1.1c-0.3-0.5-0.4-1.1-0.4-1.8c0-1.2,0.4-2.1,1.2-2.9
	c0.8-0.8,1.8-1.2,3.1-1.2c0.4,0,0.7,0,1,0.1c0.2,0,0.4,0.1,0.8,0.3c0.4,0.1,0.6,0.2,0.7,0.2c0.1,0,0.2,0,0.3-0.1
	c0.1-0.1,0.2-0.2,0.2-0.4H138L138,24.4z"/>
<path class="st0" d="M141.7,26.8c0.5,0,0.9,0.1,1.3,0.4c0.4,0.2,0.7,0.6,0.9,1c0.2,0.4,0.3,0.9,0.3,1.4c0,0.8-0.2,1.4-0.6,1.9
	c-0.5,0.6-1.1,0.9-1.9,0.9c-0.8,0-1.4-0.3-1.8-0.8c-0.4-0.6-0.6-1.2-0.6-1.9c0-0.8,0.2-1.4,0.7-2C140.3,27.1,141,26.8,141.7,26.8
	L141.7,26.8z M141.7,27.2c-0.2,0-0.4,0.1-0.5,0.2c-0.1,0.1-0.2,0.4-0.3,0.9c0,0.4-0.1,1-0.1,1.8c0,0.4,0,0.8,0.1,1.1
	c0,0.3,0.1,0.5,0.3,0.6c0.1,0.1,0.3,0.2,0.5,0.2c0.2,0,0.3,0,0.4-0.1c0.1-0.1,0.2-0.3,0.3-0.5c0.1-0.4,0.1-1.1,0.1-2.2
	c0-0.6,0-1.1-0.1-1.3c-0.1-0.2-0.2-0.4-0.3-0.5C142,27.2,141.9,27.2,141.7,27.2L141.7,27.2z"/>
<path d="M146.7,32.4l-1.8-4.1c-0.2-0.5-0.4-0.8-0.5-0.9c-0.1-0.1-0.2-0.2-0.4-0.2v-0.2h2.8v0.2c-0.2,0-0.3,0-0.4,0.1
	c-0.1,0.1-0.1,0.2-0.1,0.3c0,0.1,0.1,0.4,0.2,0.8l0.9,2l0.7-1.7c0.2-0.5,0.3-0.8,0.3-1c0-0.1,0-0.2-0.1-0.3
	c-0.1-0.1-0.2-0.1-0.4-0.1v-0.2h1.7v0.2c-0.2,0-0.3,0.1-0.4,0.2c-0.1,0.1-0.3,0.4-0.5,0.9l-1.8,4.2H146.7L146.7,32.4z"/>
<path class="st0" d="M153.8,29.4h-2.9c0,0.7,0.2,1.3,0.6,1.7c0.3,0.3,0.6,0.5,0.9,0.5c0.2,0,0.4-0.1,0.6-0.2
	c0.2-0.1,0.4-0.4,0.6-0.7l0.2,0.1c-0.3,0.6-0.6,1-1,1.2c-0.3,0.2-0.8,0.4-1.2,0.4c-0.8,0-1.4-0.3-1.8-0.9c-0.3-0.5-0.5-1.1-0.5-1.8
	c0-0.9,0.2-1.6,0.7-2.1c0.5-0.5,1-0.8,1.7-0.8c0.5,0,1,0.2,1.4,0.7C153.6,27.9,153.8,28.5,153.8,29.4L153.8,29.4z M152.4,29
	c0-0.6,0-1-0.1-1.3c-0.1-0.2-0.2-0.4-0.3-0.5c-0.1-0.1-0.2-0.1-0.3-0.1c-0.2,0-0.4,0.1-0.5,0.3c-0.2,0.3-0.3,0.8-0.3,1.4V29H152.4
	L152.4,29z"/>
<path d="M156.3,26.9v1.2c0.4-0.5,0.7-0.9,0.9-1.1c0.3-0.2,0.5-0.3,0.8-0.3c0.2,0,0.4,0.1,0.5,0.2c0.1,0.1,0.2,0.3,0.2,0.5
	c0,0.3-0.1,0.5-0.2,0.6c-0.1,0.1-0.3,0.2-0.4,0.2c-0.2,0-0.4-0.1-0.5-0.2c-0.1-0.1-0.2-0.2-0.3-0.2c0,0-0.1,0-0.1,0
	c-0.1,0-0.2,0-0.3,0.1c-0.2,0.1-0.3,0.3-0.4,0.6c-0.1,0.4-0.2,0.8-0.2,1.2V31l0,0.3c0,0.2,0,0.4,0,0.4c0,0.1,0.1,0.2,0.2,0.2
	c0.1,0,0.2,0.1,0.5,0.1v0.2h-2.9V32c0.2,0,0.4-0.1,0.5-0.2c0.1-0.1,0.1-0.4,0.1-0.9V28c0-0.3,0-0.5,0-0.6c0-0.1-0.1-0.2-0.2-0.2
	c-0.1,0-0.2-0.1-0.4-0.1v-0.2H156.3L156.3,26.9z"/>
<path d="M161.2,26.9v0.7c0.3-0.3,0.5-0.5,0.8-0.6c0.2-0.1,0.5-0.2,0.8-0.2c0.3,0,0.6,0.1,0.9,0.3c0.2,0.2,0.4,0.4,0.5,0.7
	c0.1,0.2,0.1,0.6,0.1,1.2v2.1c0,0.4,0,0.7,0.1,0.8c0.1,0.1,0.2,0.2,0.5,0.2v0.2h-2.7V32c0.2,0,0.3-0.1,0.4-0.3
	c0.1-0.1,0.1-0.3,0.1-0.7v-2.4c0-0.4,0-0.7-0.1-0.8c0-0.1-0.1-0.2-0.2-0.3c-0.1-0.1-0.2-0.1-0.3-0.1c-0.3,0-0.6,0.2-0.9,0.7v2.8
	c0,0.4,0,0.6,0.1,0.8c0.1,0.1,0.2,0.2,0.4,0.2v0.2h-2.7V32c0.2,0,0.4-0.1,0.5-0.2c0.1-0.1,0.1-0.3,0.1-0.7v-3c0-0.4,0-0.7-0.1-0.7
	c-0.1-0.1-0.2-0.2-0.5-0.2v-0.2H161.2L161.2,26.9z"/>
<path d="M167.4,26.9v0.7c0.3-0.3,0.6-0.5,0.8-0.7c0.2-0.1,0.5-0.2,0.8-0.2c0.3,0,0.6,0.1,0.9,0.2c0.2,0.2,0.4,0.4,0.5,0.7
	c0.3-0.3,0.6-0.6,0.9-0.7c0.3-0.2,0.6-0.2,0.9-0.2c0.4,0,0.7,0.1,0.9,0.3c0.2,0.2,0.4,0.4,0.5,0.6c0.1,0.3,0.1,0.7,0.1,1.2v2.2
	c0,0.4,0,0.7,0.1,0.8c0.1,0.1,0.2,0.2,0.5,0.2v0.2h-2.7V32c0.2,0,0.4-0.1,0.5-0.3c0.1-0.1,0.1-0.3,0.1-0.7v-2.3c0-0.5,0-0.8-0.1-0.9
	c0-0.1-0.1-0.2-0.2-0.3c-0.1-0.1-0.2-0.1-0.3-0.1c-0.2,0-0.3,0.1-0.5,0.2c-0.2,0.1-0.3,0.3-0.5,0.5v2.8c0,0.4,0,0.6,0.1,0.7
	c0.1,0.1,0.3,0.2,0.5,0.2v0.2h-2.7V32c0.1,0,0.3,0,0.3-0.1c0.1-0.1,0.1-0.1,0.2-0.2c0-0.1,0-0.3,0-0.6v-2.3c0-0.5,0-0.8-0.1-0.9
	c0-0.1-0.1-0.2-0.2-0.3c-0.1-0.1-0.2-0.1-0.3-0.1c-0.2,0-0.3,0-0.4,0.1c-0.2,0.1-0.4,0.3-0.6,0.6v2.8c0,0.4,0,0.6,0.1,0.7
	c0.1,0.1,0.2,0.2,0.5,0.2v0.2h-2.7V32c0.2,0,0.4-0.1,0.5-0.2c0.1-0.1,0.1-0.3,0.1-0.7v-3c0-0.4,0-0.7-0.1-0.7
	c-0.1-0.1-0.2-0.2-0.5-0.2v-0.2H167.4L167.4,26.9z"/>
<path class="st0" d="M178.9,29.4H176c0,0.7,0.2,1.3,0.6,1.7c0.3,0.3,0.6,0.5,0.9,0.5c0.2,0,0.4-0.1,0.6-0.2c0.2-0.1,0.4-0.4,0.6-0.7
	l0.2,0.1c-0.3,0.6-0.6,1-1,1.2c-0.3,0.2-0.8,0.4-1.2,0.4c-0.8,0-1.4-0.3-1.8-0.9c-0.3-0.5-0.5-1.1-0.5-1.8c0-0.9,0.2-1.6,0.7-2.1
	c0.5-0.5,1-0.8,1.7-0.8c0.5,0,1,0.2,1.4,0.7C178.6,27.9,178.9,28.5,178.9,29.4L178.9,29.4z M177.5,29c0-0.6,0-1-0.1-1.3
	c-0.1-0.2-0.2-0.4-0.3-0.5c-0.1-0.1-0.2-0.1-0.3-0.1c-0.2,0-0.4,0.1-0.5,0.3c-0.2,0.3-0.3,0.8-0.3,1.4V29H177.5L177.5,29z"/>
<path d="M181.3,26.9v0.7c0.3-0.3,0.5-0.5,0.8-0.6c0.2-0.1,0.5-0.2,0.8-0.2c0.3,0,0.6,0.1,0.9,0.3c0.2,0.2,0.4,0.4,0.5,0.7
	c0.1,0.2,0.1,0.6,0.1,1.2v2.1c0,0.4,0,0.7,0.1,0.8c0.1,0.1,0.2,0.2,0.5,0.2v0.2h-2.7V32c0.2,0,0.3-0.1,0.4-0.3
	c0.1-0.1,0.1-0.3,0.1-0.7v-2.4c0-0.4,0-0.7-0.1-0.8c0-0.1-0.1-0.2-0.2-0.3c-0.1-0.1-0.2-0.1-0.3-0.1c-0.3,0-0.6,0.2-0.9,0.7v2.8
	c0,0.4,0,0.6,0.1,0.8c0.1,0.1,0.2,0.2,0.4,0.2v0.2h-2.7V32c0.2,0,0.4-0.1,0.5-0.2c0.1-0.1,0.1-0.3,0.1-0.7v-3c0-0.4,0-0.7-0.1-0.7
	c-0.1-0.1-0.2-0.2-0.5-0.2v-0.2H181.3L181.3,26.9z"/>
<path d="M187.1,25v1.9h1.3v0.6h-1.3v3.3c0,0.3,0,0.5,0,0.6c0,0.1,0.1,0.2,0.2,0.2c0.1,0.1,0.1,0.1,0.2,0.1c0.2,0,0.5-0.2,0.7-0.6
	l0.2,0.1c-0.3,0.7-0.8,1.1-1.5,1.1c-0.3,0-0.6-0.1-0.9-0.3c-0.2-0.2-0.4-0.4-0.4-0.6c0-0.1-0.1-0.5-0.1-1v-2.9h-0.7v-0.2
	c0.5-0.3,0.9-0.7,1.2-1.1c0.3-0.4,0.6-0.8,0.9-1.2H187.1L187.1,25z"/>
<path d="M35.9,44.9c0,0.1-0.1,0.1-0.1,0.1"/>
<path d="M37.2,34.5c0.2,0,0.3-0.1,0.3-0.3c0-0.2-0.1-0.3-0.3-0.3c-0.2,0-0.3,0.1-0.3,0.3C36.9,34.4,37.1,34.5,37.2,34.5L37.2,34.5z"
	/>
<path d="M50.1,22.8L50.1,22.8l-10,0v0h0l0,8.1c0,0.8,0.3,1.5,0.8,1.7l3.9,2.3c0.1,0.1,0.2,0.2,0.4,0.2c0.1,0,0.2,0,0.3-0.1l3.9-2.3
	c0.5-0.2,0.8-0.9,0.8-1.7L50.1,22.8L50.1,22.8L50.1,22.8z M43.4,25.1h-0.9V23h0.9V25.1L43.4,25.1z M42.8,25.8l0.1-0.1l-0.1-0.1
	l0.2,0l0.1-0.2l0.1,0.2l0.2,0l-0.1,0.1l0.1,0.1l-0.2,0V26l-0.1-0.1L42.9,26v-0.2L42.8,25.8L42.8,25.8z M40.4,28.4v-2h1.1v2H40.4
	L40.4,28.4z M40.5,25.6l0.2,0l0.1-0.2l0.1,0.2l0.2,0L41,25.7l0.1,0.1l-0.2,0V26l-0.1-0.1L40.6,26v-0.2l-0.2,0l0.1-0.1L40.5,25.6
	L40.5,25.6z M41.7,27.6l0.2,0l0.1-0.2l0.1,0.2l0.2,0l-0.1,0.1l0.1,0.1l-0.2,0V28L42,27.9L41.8,28v-0.2l-0.2,0l0.1-0.1L41.7,27.6
	L41.7,27.6z M42.4,26c0-0.1-0.1-0.1-0.1-0.1c-0.1,0-0.1,0.2-0.2,0.2c-0.1,0-0.1,0-0.1-0.1c0-0.1,0.1-0.1,0.2-0.1
	c-0.6,0-0.7,0.3-0.8,0.3c-0.2,0,0.1-0.3,0.2-0.4c-0.1,0-0.2-0.2-0.4-0.3c0.1-0.1,0.1-0.1,0.2,0c0-0.1,0.1-0.1,0.2-0.1
	c0.3,0,0.2,0.3,0.3,0.3c0,0,0-0.3,0.2-0.3c0.3,0,0.6,0.7,0.3,0.7C42.3,26.1,42.4,26,42.4,26L42.4,26z M41.7,23.8l0.1-0.1l-0.1-0.1
	l0.2,0l0.1-0.2l0.1,0.2l0.2,0l-0.1,0.1l0.1,0.1l-0.2,0V24L42,23.9L41.8,24v-0.2L41.7,23.8L41.7,23.8z M41.4,23v2.1h-1.1V23H41.4
	L41.4,23z M43.4,33.7L41,32.3c-0.4-0.3-0.6-0.8-0.6-1.3v-2.3h3V33.7L43.4,33.7z M42.5,28.4v-2h0.9v2H42.5L42.5,28.4z M46.5,33.9
	l-1.1,0.7h0c-0.1,0.1-0.2,0.1-0.3,0.1c-0.1,0-0.2,0-0.3-0.1l-1.1-0.7v-5.2h2.8V33.9L46.5,33.9z M46.5,28.4h-2.8V23h2.8V28.4
	L46.5,28.4z M49.8,31c-0.1,0.6-0.2,1.1-0.6,1.3l-2.4,1.4v-5h3V31L49.8,31z M49.8,28.4h-3V23h3V28.4L49.8,28.4z"/>
<path d="M43.2,30.5c0,0-0.4,0.1-0.3,0.1c0-0.1,0.2-0.3,0.3-0.4c0-0.1-0.2,0-0.4,0.1c0.6-0.8,0.2-0.5-0.1-0.4c0.5-0.5,0.4-0.5,0-0.4
	c0.3-0.2,0.4-0.5,0.3-0.6c-0.3,0.4-0.5,0.3-0.5,0.7c0,0.2-0.1,0.6-0.2,0.7c-0.1,0.2,0-0.6-0.4-0.6c-0.1,0-0.4,0-0.5,0.1
	c0.1,0,0.2,0.2,0.2,0.3c0,0.1,0.1,0.3-0.1,0.3c-0.1,0-0.3-0.3-0.3-0.4c0-0.1,0-0.1,0-0.3c0-0.3-0.5-0.8-0.7-0.8
	c0,0.2,0.3,0.3,0.3,0.6c-0.1,0-0.3-0.2-0.3-0.1c0,0.1,0.2,0.2,0.2,0.3c0,0.1-0.2,0-0.2,0.1c0,0.1,0.1,0.1,0.1,0.2
	c-0.1,0-0.2,0-0.2,0c0,0,0,0.1,0.1,0.1c0,0-0.1,0.1-0.1,0.3c0,0.6,0.4,0.9,0.7,0.9c0.2,0,0.2-0.1,0.2-0.2c0,0.1,0.1-0.1,0.1,0.1
	c0,0.2-0.2,0.1-0.2,0.3c0,0.2,0.3,0,0.3,0.2c0,0.3,0,0.3,0,0.4c0,0.1,0.3-0.1,0.3-0.1c0.1,0,0.1,0.3,0.2,0.3c0.1,0,0.1-0.2,0.2-0.3
	c0,0,0.3,0.2,0.3,0.1c0-0.3-0.1-0.2-0.1-0.4c0-0.2,0.4-0.2,0.3-0.2c-0.1-0.1-0.1,0-0.1-0.2c0,0-0.3-0.5,0.1-0.2
	C43.2,31.5,43.3,30.6,43.2,30.5L43.2,30.5z"/>
<path d="M53.9,32.6c0.2,0,0.3-0.1,0.3-0.3c0-0.2-0.1-0.3-0.3-0.3c-0.2,0-0.3,0.1-0.3,0.3C53.6,32.5,53.7,32.6,53.9,32.6L53.9,32.6z"
	/>
<path d="M52.6,33.4c0.2,0,0.3-0.1,0.3-0.3c0-0.2-0.1-0.3-0.3-0.3s-0.3,0.1-0.3,0.3C52.3,33.3,52.4,33.4,52.6,33.4L52.6,33.4z"/>
<path d="M36.8,35.3c0.2,0,0.3-0.1,0.3-0.3c0-0.2-0.1-0.3-0.3-0.3c-0.2,0-0.3,0.1-0.3,0.3C36.4,35.1,36.6,35.3,36.8,35.3L36.8,35.3z"
	/>
<path d="M37.8,35.4c0.2,0,0.3-0.1,0.3-0.3c0-0.2-0.1-0.3-0.3-0.3c-0.2,0-0.3,0.1-0.3,0.3C37.5,35.2,37.6,35.4,37.8,35.4L37.8,35.4z"
	/>
<path d="M66.3,21.5c0.5,0.6,0.6,1.5,0.2,2.2c-0.2,0-0.2-0.3-0.2-0.4c-0.3-0.7-0.6-1.5-0.3-2.2C66.2,21.1,66.1,21.4,66.3,21.5
	L66.3,21.5z"/>
<path d="M24.5,22.3c-0.1,0.4-0.1,1,0,1.4c-0.1,0.1-0.1-0.1-0.2-0.1c-0.7-0.5-0.4-1.5-0.5-2.1c0-0.1,0.1-0.1,0.2,0
	C24.3,21.7,24.4,22,24.5,22.3L24.5,22.3z"/>
<path d="M67.8,22.4c0.1,0.2-0.1,0.4-0.2,0.5c-0.2,0-0.3-0.1-0.4-0.2c-0.1-0.2,0.1-0.4,0.2-0.5C67.5,22.2,67.7,22.2,67.8,22.4
	L67.8,22.4z"/>
<path d="M23.4,23.2c0,0.2-0.1,0.3-0.2,0.4c-0.1,0-0.3,0-0.3-0.1c-0.1-0.1-0.1-0.2-0.1-0.4c0.1-0.1,0.2-0.1,0.3-0.2
	C23.2,23,23.4,23,23.4,23.2L23.4,23.2z"/>
<path d="M68.5,23.5c0,0.1,0,0.2,0,0.3c-0.1,0.2-0.3,0.2-0.5,0.2c-0.1-0.1-0.2-0.2-0.2-0.3c0-0.1,0.2-0.3,0.3-0.3
	C68.2,23.3,68.3,23.4,68.5,23.5L68.5,23.5z"/>
<path d="M67.5,23.5c0.1,0.1,0,0.2,0,0.4c-0.1,0.1-0.2,0.2-0.4,0.2c-0.1-0.1-0.2-0.1-0.2-0.2c0-0.2,0.1-0.4,0.2-0.4
	C67.3,23.4,67.4,23.4,67.5,23.5L67.5,23.5z"/>
<path d="M66.2,23.7c0,0.2,0,0.4-0.2,0.5c-0.2,0.1-0.3-0.1-0.4-0.2c0-0.2,0.1-0.4,0.3-0.4C66,23.5,66.1,23.6,66.2,23.7L66.2,23.7z"/>
<path d="M25.3,23.8c0.1,0.2-0.1,0.3-0.2,0.4c-0.1,0-0.3-0.1-0.4-0.2c-0.1-0.1,0-0.2,0.1-0.3C25,23.5,25.2,23.6,25.3,23.8L25.3,23.8z
	"/>
<path d="M24.3,23.9c0,0.1-0.1,0.3-0.2,0.3c-0.1,0.1-0.3-0.1-0.4-0.2c-0.1-0.2,0-0.3,0.2-0.4C24.1,23.6,24.2,23.8,24.3,23.9
	L24.3,23.9z"/>
<path d="M62,24c0.2,0.4,0.3,0.8,0.3,1.3c-0.1,0.3,0.1,0.8-0.2,1c-0.2-0.1-0.3-0.4-0.4-0.5c-0.3-0.6,0-1.3,0.1-1.9
	C61.9,23.7,61.9,23.9,62,24L62,24z"/>
<path d="M23.4,24.2c0.1,0.2-0.1,0.3-0.2,0.4c-0.2,0.1-0.3-0.1-0.4-0.2c0-0.2,0.1-0.4,0.2-0.4C23.2,23.9,23.4,24,23.4,24.2L23.4,24.2
	z"/>
<path d="M64.7,24.7c0.2,0.5,0.2,1.1,0.1,1.7l-0.1,0.1C64.5,26,64.1,25.5,64,25c0-0.4,0.1-0.7,0.2-1c0.1-0.1,0.2,0,0.2,0.1
	C64.5,24.3,64.5,24.6,64.7,24.7L64.7,24.7z"/>
<path d="M66.9,24.4c0,0.2-0.1,0.4-0.3,0.4c-0.2,0-0.3,0-0.4-0.2c-0.1-0.2,0.1-0.3,0.2-0.4C66.6,24,66.8,24.2,66.9,24.4L66.9,24.4z"
	/>
<path d="M24.3,24.9c0,0.1-0.1,0.3-0.3,0.3c-0.1,0.1-0.2-0.1-0.4-0.1c-0.1-0.1-0.1-0.3,0-0.4c0.1-0.1,0.2-0.1,0.3-0.1
	C24.1,24.7,24.2,24.7,24.3,24.9L24.3,24.9z"/>
<path d="M25,24.8c0.1,0.2-0.1,0.3-0.2,0.4c-0.2,0.1-0.3-0.1-0.4-0.2c0-0.2,0.1-0.3,0.2-0.4C24.9,24.5,25,24.7,25,24.8L25,24.8z"/>
<path d="M67.4,24.8c0,0.2-0.4,0.5-0.4,0.7c-0.2,0.5-0.6,0.8-1.1,1c-0.1,0.1-0.2,0.2-0.4,0.2c0-0.4,0.3-0.7,0.5-1
	C66.4,25.2,66.9,24.9,67.4,24.8L67.4,24.8z"/>
<path d="M23.9,25.5c0.3,0.3,0.4,0.6,0.7,0.8c0,0.1,0,0.2-0.1,0.2c-0.9-0.1-1.4-0.9-1.9-1.5c0.1-0.2,0.3,0,0.4-0.1
	C23.4,25.1,23.7,25.2,23.9,25.5L23.9,25.5z"/>
<path d="M67.7,25.7c0,0.8-0.4,1.5-1.1,1.9c-0.2,0.1-0.4,0.3-0.6,0.1c0.4-0.8,0.9-1.4,1.5-2H67.7L67.7,25.7z"/>
<path d="M64.3,26.3c0.1,0.3-0.1,0.4-0.3,0.5c-0.2,0-0.3-0.1-0.4-0.3c0-0.2,0.1-0.3,0.2-0.4C63.9,26,64,26,64.1,26
	C64.2,26.1,64.2,26.2,64.3,26.3L64.3,26.3z"/>
<path d="M23,26.4c0.3,0.2,0.6,0.5,0.9,0.8c-0.2,0.2-0.5,0-0.8,0c-0.6-0.2-1-0.7-1.6-0.9c0-0.2,0.2-0.1,0.4-0.2
	C22.3,26.2,22.6,26.3,23,26.4L23,26.4z"/>
<path d="M41.7,21.2c-1-0.4-1.6,0.6-2.6,0.5c-0.1,0.1-0.1,0.2-0.2,0.3c-0.1,0.1-0.1,0-0.2,0c-0.1-0.4-0.2-0.8-0.2-1.2
	c-0.1-0.2-0.1-0.4-0.1-0.6c-0.6-1.5,1.4-0.4,1.7-1.3c0.3-0.8-0.6-0.9-0.9-1.4v-0.2c-0.3-0.3-0.6-0.4-0.8-0.7
	c0.1-0.4,0.2-0.9,0.1-1.4c0-0.1-0.1-0.2-0.2-0.2c-0.3,0.5-0.6,0.8-0.9,1.3c-0.3-0.2-0.6-0.6-1-0.8c-0.3,0-0.5-0.3-0.8-0.2
	c-0.1,0.1,0,0.2,0.1,0.3c0,0.7,0.4,1.2,0.9,1.7l0.1,0.3c-0.3,0.7-0.2,1.5-0.3,2.3c-0.8,2-2.1,3.9-3.8,5.3c-1,1.1-2.2,2.2-2.3,3.8
	c-0.1,0.2,0,0.5-0.2,0.7c-0.6-0.2-1.2-0.5-1.6-0.9c-0.8-0.6-2-0.5-2.5-1.5c-0.2-0.4,0.1-0.8,0.2-1.1c0.6-0.6,0.5-1.6,0.2-2.3
	c-0.1,0-0.1,0.1-0.1,0.1c-0.1,1-0.9,1.8-0.6,2.9c0.1,0.3,0.2,0.5,0.3,0.9c-0.1,0-0.3,0-0.4-0.1c-0.4-0.1-0.8-0.2-1.2-0.2
	c-0.8,0.4-1.9-0.1-2.5,0.7c-0.1,0-0.2,0-0.2,0.2c0.4,0,0.8,0.1,1.1,0.1c0.6,0.1,1-0.4,1.4-0.6h0.1c0.2-0.2,0.5-0.1,0.7-0.1
	c1.1,0.1,2,0.7,2.9,1.2V29c-0.3,0.2-0.8,0.3-1.1,0.5c-0.4,0.3-0.9,0.7-1,1.2c-0.3,0.4,0.1,0.8,0.3,1.2c0,0.2,0,0.4,0.2,0.5
	c0.6-0.6,0-1.3,0.1-2c0.1-0.5,0.6-0.8,1.1-0.9c1-0.4,1.7,0.4,2.5,0.8c0,0.8,0.1,1.6-0.1,2.4c-0.2,0.1-0.6,0.1-0.8,0.1
	c-1.4,0.1-2.5,0.9-3.7,1.3c-0.6,0.2-1.2,0.2-1.8,0.4c0.4,0.1,0.9,0,1.3-0.1c1.7-0.2,3-1.6,4.9-1.3l0,0.1c-0.2,0.4-0.5,0.8-0.8,1.1
	c-0.1-0.2-0.1-0.4-0.2-0.5c-0.1-0.1-0.3,0-0.4,0.1c-0.1,0.1-0.1,0.2,0,0.3c0.1,0.2,0.2,0.2,0.4,0.2c0,0.2-0.2,0.2-0.3,0.4
	c-0.5,0.8-1.5,0.5-2.1,1.1c-0.1,0.1-0.4,0.2-0.3,0.4c0.7,0.1,1.3-0.1,1.8-0.5c0.6-0.7,1.3-1.4,2-2.1c0.1,0.6-0.1,1.1-0.4,1.6
	c-0.2-0.1-0.3-0.2-0.5-0.3c-0.2,0-0.3,0.2-0.3,0.4c0.1,0.1,0.1,0.3,0.3,0.4c-0.6,0.4-1.3,0.5-2,0.7c-1.3,0.2-2.5,0.3-3.8,0.3
	c-0.6,0-1.3,0.2-1.9,0c-0.7,0.1-1.4-0.1-1.9,0.3c-0.1,0.1,0,0.2,0,0.3c0.8,0.5,1.9,0.1,2.8,0.3h6.9c0.5,0,1,0,1.4-0.3
	c0.9-0.5,1.4-1.4,1.8-2.3c0.2-0.3,0.3-0.7,0.4-1.1c0.2-0.6,0.7-1,1.3-1.1c0.1,0.9-0.1,1.8-0.3,2.7c-0.1,0.6-0.5,1.1-0.2,1.7
	c0.1,0.3,0.3,0.3,0.6,0.3c2.1,0,4.2-0.1,6.5,0c0.4,0.1,0.8,0.2,1.2,0.2c0-0.1,0.2-0.1,0.1-0.2c-0.1-0.2-0.2-0.4-0.4-0.5
	c0-0.1-0.2-0.1-0.2-0.1c-1.1-0.6-2.5-0.3-3.8-0.3c-0.7,0.1-1.4,0.2-1.9-0.2C35,36,35.2,35,35.2,35c0-0.4,1-3.2,1.1-3.4
	c0-0.3,0.1-0.5,0.1-0.8c0.1-0.4,0.1-0.8,0.1-1.2c0.1-0.6,0.3-1.1,0.5-1.6c0.1-0.3,0.2-0.5,0.3-0.8c0.1-0.3,0.1-0.7,0.3-0.9
	c0.6,0.4,1.1,0.4,1.4,1l0.2,1.5c0,0.1,0.1,0.3,0.2,0.2c0.5-0.3,0.3-1,0.3-1.4c0.1-0.5-0.3-0.8-0.4-1.3c-0.1-0.1-0.3-0.5-0.3-0.5
	c-0.1-0.4-0.9-0.7-0.7-1.1c0.1-0.4,0.2-0.8,0.6-1c0.1,0,0.1,0.1,0.1,0.1l0.2-0.1l0-1.5c0.6,0,1.4,0.1,2,0.1c0.2,0.1,0.3,0.2,0.5,0.2
	l0.1-0.2l1.4-0.3C42.6,21.9,42.2,21.2,41.7,21.2L41.7,21.2z"/>
<path d="M43.2,21.8c0,0,0.1,0,0.1,0L43.2,21.8L43.2,21.8z"/>
<path d="M28,26.7c0,0.2-0.1,0.3-0.3,0.4c-0.1-0.1-0.2-0.1-0.3-0.2c-0.1-0.2,0.1-0.3,0.2-0.4C27.8,26.6,28,26.6,28,26.7L28,26.7z"/>
<path d="M26.9,26.7c0.1,0.1,0.1,0.3,0.1,0.4c-0.1,0.1-0.3,0.2-0.4,0.1c-0.1-0.1-0.2-0.2-0.1-0.4C26.5,26.7,26.7,26.6,26.9,26.7
	L26.9,26.7z"/>
<path d="M51.2,26.9C51.2,26.9,51.2,26.9,51.2,26.9"/>
<path d="M64.5,27.2c0.1,0.2-0.1,0.3-0.2,0.4c-0.2-0.1-0.4-0.1-0.4-0.3c0-0.1,0.1-0.2,0.3-0.3C64.3,27,64.4,27.1,64.5,27.2L64.5,27.2
	z"/>
<path d="M65.4,27.2c0.1,0.1,0.2,0.2,0,0.3c-0.1,0.1-0.1,0.1-0.2,0.1c-0.2,0-0.4,0-0.4-0.2c0-0.2,0.1-0.3,0.3-0.4
	C65.2,27,65.3,27.1,65.4,27.2L65.4,27.2z"/>
<path d="M22.5,27.4c-0.1,0.2-0.2,0.3-0.5,0.2c-0.1-0.1-0.1-0.1-0.1-0.2c0-0.1,0.1-0.2,0.2-0.3C22.3,27.1,22.4,27.2,22.5,27.4
	L22.5,27.4z"/>
<path d="M28.4,27.7c0,0.1-0.2,0.3-0.3,0.3c-0.2,0-0.3-0.1-0.4-0.2c0-0.1,0.1-0.3,0.2-0.4C28.1,27.4,28.3,27.5,28.4,27.7L28.4,27.7z"
	/>
<path d="M27.3,27.6c0.1,0.1,0.1,0.2,0.1,0.3c-0.1,0.1-0.3,0.2-0.4,0.1c-0.1-0.1-0.2-0.2-0.2-0.3c0.1-0.1,0.2-0.2,0.3-0.2
	C27.2,27.4,27.2,27.5,27.3,27.6L27.3,27.6z"/>
<path d="M68.1,27.8c0,0.1-0.1,0.3-0.2,0.3c-0.1,0.1-0.3,0-0.4-0.1c-0.1,0-0.1-0.2-0.1-0.3c0.1-0.1,0.2-0.2,0.3-0.2
	C67.9,27.6,68,27.7,68.1,27.8L68.1,27.8z"/>
<path d="M69.2,27.9c-0.1,0.2-0.2,0.3-0.3,0.3c-0.1,0-0.3-0.1-0.3-0.2c0-0.1,0.1-0.2,0.2-0.3C68.9,27.7,69.1,27.8,69.2,27.9
	L69.2,27.9z"/>
<path d="M24.5,28.2c0,0.2,0,0.4-0.2,0.4c-0.1,0.1-0.2,0-0.3-0.1c-0.1-0.1-0.2-0.2-0.1-0.4c0-0.2,0.2-0.1,0.3-0.2
	C24.3,28,24.4,28.1,24.5,28.2L24.5,28.2z"/>
<path d="M25.3,28.3c0.1,0.1-0.1,0.2-0.1,0.3c-0.1,0.1-0.2,0.1-0.3,0c-0.1-0.1-0.3-0.3-0.1-0.4C24.9,28,25.2,28.1,25.3,28.3
	L25.3,28.3z"/>
<path d="M67,28.3c0,0.2-0.1,0.3-0.2,0.4c-0.2,0-0.3-0.1-0.4-0.2c0-0.1,0.1-0.2,0.2-0.3C66.8,28.1,67,28.1,67,28.3L67,28.3z"/>
<path d="M68.5,28.5c0,0.2,0,0.3-0.2,0.4c-0.1,0-0.3,0-0.4-0.1c-0.1-0.1-0.1-0.2-0.1-0.4c0.1-0.1,0.2-0.2,0.4-0.2
	C68.3,28.4,68.4,28.5,68.5,28.5L68.5,28.5z"/>
<path d="M23.8,28.9c0.1,0.1-0.1,0.2-0.1,0.2c-0.1,0.1-0.2,0-0.3,0c-0.1-0.1-0.1-0.2-0.1-0.3C23.4,28.5,23.7,28.7,23.8,28.9
	L23.8,28.9z"/>
<path d="M67.4,29.2c0.1,0,0,0.1,0,0.2c-0.4,0.2-1,0.3-1.4-0.1c-0.2-0.2-0.5-0.2-0.7-0.4c0.1-0.2,0.4-0.2,0.6-0.3
	C66.4,28.8,66.8,29.2,67.4,29.2L67.4,29.2z"/>
<path d="M24.6,29.1c0,0.1-0.1,0.2-0.1,0.3c-0.1,0.1-0.2,0.1-0.3,0c-0.2-0.1-0.2-0.3-0.1-0.4C24.3,28.8,24.5,28.9,24.6,29.1
	L24.6,29.1z"/>
<path d="M26.2,29.2c0.1,0.2,0,0.3-0.2,0.4c-0.1,0.1-0.2,0-0.3-0.1c-0.1-0.1-0.2-0.3-0.1-0.4C25.7,28.9,26.1,29,26.2,29.2L26.2,29.2z
	"/>
<path d="M46.4,29.9c0,0.4-0.6-0.1-0.5,0.4c0.1,0.3,0.1,0.7,0.3,1c0.2,0.2,0.1,0.6,0.1,0.9c-0.1,0.2-0.4,0.4-0.7,0.6
	c-0.5,0-1.2,0.3-1.5-0.4c-0.1-0.3-0.3-0.5-0.3-0.8c0.1,0,0.1,0,0.2-0.1c0-0.1-0.1-0.2-0.1-0.3c0.6-0.1-0.2-0.6,0.2-0.6
	c0.4,0.4,1,0.3,1.4,0.7c0.1,0.1,0.1,0.2,0.2,0.2c-0.1-0.4-0.3-0.8-0.3-1.3c-0.1-0.2,0-0.5,0.2-0.6C46,29.4,46.2,29.8,46.4,29.9
	L46.4,29.9z"/>
<path d="M27.7,29.8c0.1,0.2-0.1,0.3-0.2,0.4c-0.2,0.1-0.2-0.1-0.3-0.2c-0.1-0.2,0.1-0.3,0.2-0.4C27.5,29.7,27.7,29.7,27.7,29.8
	L27.7,29.8z"/>
<path d="M38.5,30c0.2,0.7,0.1,1.4-0.2,2c0,0.1,0,0.4-0.2,0.4c-0.5-0.7-0.1-1.6,0.1-2.3C38.2,29.9,38.4,29.8,38.5,30L38.5,30z"/>
<path d="M53.4,30.3c0.2,0.5,0.3,1.1,0,1.6l-0.1,0.1c-0.2-0.4-0.3-0.8-0.4-1.2c0.1-0.3,0.2-0.6,0.2-0.9
	C53.4,29.9,53.4,30.2,53.4,30.3L53.4,30.3z"/>
<path d="M29.1,30.5c-0.1,0.2-0.4,0.3-0.6,0.4c-0.4,0.3-1,0.4-1.6,0.3c0.5-0.6,1.2-1,2-0.8C29,30.5,29,30.4,29.1,30.5L29.1,30.5z"/>
<path d="M21.9,31.2c0.6,0.5,0.8,1.1,1.2,1.7c0.1,0.1,0.2,0.1,0.2,0.2C23.1,33.2,23,33,22.8,33c-0.7-0.3-1.1-1-1.1-1.8
	C21.7,31.2,21.8,31.2,21.9,31.2L21.9,31.2z"/>
<path d="M52.8,31.7c0,0.2,0,0.4-0.2,0.4c-0.2,0.1-0.3-0.1-0.4-0.2c-0.1-0.1,0.1-0.2,0.1-0.3C52.4,31.5,52.7,31.5,52.8,31.7
	L52.8,31.7z"/>
<path d="M60.1,32.6c0-0.3,0.1-0.6,0.1-1c0.1-0.1,0.1-0.2,0.1-0.4c0.4-0.6,1.3-0.4,1.9-0.3c0.3,0.1,0.6,0.1,0.9,0.2
	c0.1-0.1,0.3-0.1,0.4-0.1c0.6-0.3,0.2-0.9,0.2-1.5l-0.2-0.5c-0.1-0.1-0.1-0.2-0.1-0.4c-0.1-0.1-0.2-0.4-0.3-0.5
	c-0.3-0.8-0.9-1.2-1.4-1.8c-0.9-1.2-2.3-1.8-3.7-2.3c-1.4-0.5-2.8,0.1-4,0.6c-0.4-0.1-0.6-0.4-0.7-0.7c-0.1-0.7,0.1-1.3,0.3-1.9
	c0.1-0.4,0.3-0.8,0.5-1.2c0.3-1,0.6-2,0.7-3c0-0.7-0.5-1.1-0.9-1.4c-0.3-0.1-0.7-0.1-1,0.2c-0.2,0.5-0.7,0.8-1.1,1
	c0,0.3,0.3,0.1,0.5,0.2c0.4,0.1,0.8-0.1,1.1,0.2c0,0.7-0.4,1.3-0.7,1.8c-0.6,0.9-1.2,1.8-1.6,2.7l-0.1-0.1l0.1,4.3
	c0.6,0.9,1.3,2,2.3,2.3c0.6,0.5,1.3,1,2,0.6c0.4-0.1,0.4,0.4,0.6,0.7c0.2,0.7-0.3,1.1-0.3,1.7l-0.5,1c-0.5,1-1,2.1-1.8,3
	c-0.3,0-0.4,0.3-0.7,0.3c-0.1,0.2-0.4,0.1-0.6,0.1c-0.5,0.2-1.3,0.1-1.7,0.6c0,0.1,0.1,0.1,0.1,0.1c1.1,0,2.3,0.1,3.4,0
	c0.1-0.1,0.3-0.2,0.3-0.3c-0.2-0.3,0.1-0.6,0.2-0.8c0.1-0.4,0.4-0.7,0.5-1.1c0.4-0.7,0.8-1.4,1.2-2.1l0.5-0.9c0.1-0.3,0.3-0.7,0.5-1
	c0.1-0.1,0.2-0.3,0.3-0.5c0-0.2-0.1-0.2-0.2-0.4c0.1-0.1,0.3-0.1,0.5-0.1c0.4,0.3,0.9,0.7,1,1.2l0.2,0.5l0.1,0.2l0,0.6l0.1,0.5
	c0.1,0.8-0.1,1.7-0.2,2.6c-0.3,1-1.5,0.9-2.3,1.1c-0.2,0.1-0.6,0.1-0.6,0.4c1,0.2,2.2,0.1,3.3,0.1c0.2-0.1,0.2-0.2,0.3-0.4
	c0-0.2,0.3-0.4,0.2-0.7c-0.2-0.2,0-0.6-0.1-1c0-0.1,0-0.2,0-0.3c0.1-0.5,0.1-1.1,0.2-1.6L60.1,32.6L60.1,32.6z"/>
<path d="M68.7,32c-0.6,0.8-1.2,1.7-2.1,2c-0.1,0-0.1,0-0.2-0.1c0.6-0.6,0.9-1.6,1.8-1.8C68.4,32,68.6,31.9,68.7,32L68.7,32z"/>
<path d="M21.1,32.8c-0.1,0.1,0,0.2-0.2,0.2c-0.1,0.1-0.3,0-0.4-0.2c-0.1-0.2,0.1-0.4,0.2-0.4C20.9,32.6,21,32.6,21.1,32.8L21.1,32.8
	z"/>
<path d="M26.1,33.1c0.1,0.2-0.1,0.2-0.2,0.2c-0.7,0.3-1.5,0-2-0.5c0-0.1,0-0.1,0.1-0.2C24.6,32.8,25.5,32.6,26.1,33.1L26.1,33.1z"/>
<path d="M22,32.8c0,0.1,0.1,0.2,0,0.3c-0.1,0.2-0.3,0.2-0.4,0.2c-0.1-0.1-0.2-0.1-0.2-0.2c0-0.2,0.2-0.3,0.3-0.3
	C21.8,32.7,21.9,32.7,22,32.8L22,32.8z"/>
<path d="M38.4,32.9c0,0.2-0.1,0.3-0.2,0.3c-0.2,0-0.3,0-0.4-0.1c-0.1-0.1,0-0.3,0.1-0.3C38.1,32.7,38.3,32.8,38.4,32.9L38.4,32.9z"
	/>
<path d="M69.4,33c0.1,0.2-0.1,0.3-0.2,0.4c-0.1,0.1-0.2,0-0.3-0.1c0-0.1-0.1-0.2-0.1-0.3c0.1-0.2,0.2-0.2,0.4-0.2
	C69.2,32.9,69.3,32.9,69.4,33L69.4,33z"/>
<path d="M70.5,32.9c0.1,0.2,0,0.3-0.1,0.4c-0.1,0.1-0.2,0.2-0.3,0.1c-0.1-0.1-0.2-0.2-0.3-0.3c0-0.1,0.2-0.2,0.3-0.3
	C70.3,32.7,70.4,32.9,70.5,32.9L70.5,32.9z"/>
<path d="M20.3,33.4c0,0.1-0.1,0.2-0.1,0.3c-0.1,0-0.2,0.1-0.3,0.1c-0.1-0.1-0.2-0.2-0.3-0.3c0-0.2,0.1-0.3,0.3-0.4
	C20.1,33.2,20.3,33.3,20.3,33.4L20.3,33.4z"/>
<path d="M57.1,33.4c0,0.1,0,0.2,0,0.2c-0.1,0.1-0.2,0.3-0.4,0.2c-0.1-0.1-0.2-0.2-0.2-0.4C56.7,33.3,56.9,33.2,57.1,33.4L57.1,33.4z
	"/>
<path d="M23.1,33.7c0,0.1-0.1,0.2-0.2,0.3c-0.2,0-0.2-0.1-0.3-0.2c0-0.2,0-0.3,0.1-0.4C22.9,33.3,23.1,33.5,23.1,33.7L23.1,33.7z"/>
<path d="M21.5,33.7c0.1,0.2-0.1,0.3-0.2,0.4c-0.2,0.1-0.4-0.1-0.5-0.2c0-0.2,0.1-0.4,0.3-0.4C21.3,33.5,21.4,33.6,21.5,33.7
	L21.5,33.7z"/>
<path d="M58.2,33.7c0,0.2,0,0.4-0.2,0.4c-0.2,0.1-0.4-0.1-0.5-0.2c0.1-0.1,0.1-0.3,0.3-0.4C58,33.5,58.2,33.6,58.2,33.7L58.2,33.7z"
	/>
<path d="M22.3,33.8c0.1,0.1-0.1,0.2-0.1,0.3c-0.1,0-0.1,0.1-0.2,0.1c-0.1-0.1-0.2-0.1-0.2-0.2c0-0.2,0.1-0.3,0.2-0.3
	C22.1,33.5,22.2,33.6,22.3,33.8L22.3,33.8z"/>
<path d="M68.4,33.9c-0.1,0.1-0.2,0.2-0.3,0.3c-0.1,0-0.2-0.1-0.3-0.1c-0.1-0.1-0.1-0.2,0-0.3C67.9,33.4,68.4,33.6,68.4,33.9
	L68.4,33.9z"/>
<path d="M69.7,34c-0.1,0.2-0.2,0.3-0.4,0.3c-0.2-0.1-0.3-0.2-0.2-0.4c0.1-0.1,0.1-0.1,0.2-0.2C69.5,33.6,69.7,33.8,69.7,34L69.7,34z
	"/>
<path d="M61.5,34.1c0.1,0.2-0.1,0.3-0.3,0.4c-0.1,0-0.2-0.1-0.3-0.1c0-0.2,0.1-0.4,0.2-0.5C61.3,33.9,61.3,34,61.5,34.1L61.5,34.1z"
	/>
<path d="M56.7,34.3c0.1,0,0.1,0.2,0,0.2c-0.1,0.1-0.2,0.2-0.4,0.1c-0.1-0.1-0.2-0.2-0.2-0.3C56.2,34.1,56.6,34.1,56.7,34.3
	L56.7,34.3z"/>
<path d="M57.6,34.4c0,0.1,0,0.2-0.1,0.3c-0.1,0.1-0.3,0-0.4-0.1c0-0.1-0.1-0.2,0-0.3c0.1-0.1,0.1-0.1,0.2-0.1
	C57.4,34.3,57.6,34.3,57.6,34.4L57.6,34.4z"/>
<path d="M28,34.5c0.1,0.1,0,0.2,0,0.3c-0.1,0.1-0.3,0.2-0.4,0.1c-0.2-0.1-0.2-0.3-0.1-0.4c0.1,0,0.1-0.2,0.2-0.2
	C27.8,34.3,27.9,34.4,28,34.5L28,34.5z"/>
<path d="M63.3,34.5c0,0.2-0.1,0.2-0.3,0.3c-0.2,0.1-0.3-0.1-0.4-0.2c0-0.1,0.1-0.2,0.1-0.3C63,34.2,63.2,34.4,63.3,34.5L63.3,34.5z"
	/>
<path d="M62.4,34.5c0.1,0.2-0.1,0.3-0.2,0.4c-0.1,0.1-0.3,0-0.4-0.1c-0.1-0.1-0.1-0.2-0.1-0.3c0.1-0.1,0.2-0.2,0.3-0.2
	C62.2,34.3,62.3,34.4,62.4,34.5L62.4,34.5z"/>
<path d="M70.3,34.7c0,0.2-0.3,0.1-0.4,0.2c-0.7,0.4-1.7,0.1-2.4-0.2c0.1-0.2,0.3-0.1,0.5-0.2C68.7,34.1,69.4,34.6,70.3,34.7
	L70.3,34.7L70.3,34.7z"/>
<path d="M22.5,34.5l-0.1,0.1c-0.6,0.4-1.5,0.6-2.3,0.4l-0.1-0.1C20.7,34.5,21.6,34.3,22.5,34.5L22.5,34.5L22.5,34.5z"/>
<path d="M65.1,34.6c0,0.1-0.1,0.3-0.2,0.3c-0.2,0.1-0.4,0-0.5-0.2c-0.1-0.1,0.1-0.3,0.2-0.3C64.8,34.5,65,34.5,65.1,34.6L65.1,34.6z
	"/>
<path d="M25.6,34.7c-0.1,0.1,0,0.3-0.2,0.4c-0.2,0.1-0.4-0.1-0.4-0.2c-0.1-0.2,0.1-0.2,0.2-0.3C25.3,34.4,25.5,34.6,25.6,34.7
	L25.6,34.7z"/>
<path d="M24.4,34.8c0.1,0.1-0.1,0.2-0.1,0.3c-0.1,0.1-0.2,0.1-0.3,0.1c-0.1-0.1-0.2-0.2-0.2-0.4c0.1-0.1,0.2-0.1,0.3-0.2
	C24.2,34.6,24.3,34.6,24.4,34.8L24.4,34.8z"/>
<path d="M66.3,35.2c0,0.2-0.1,0.3-0.3,0.3c-0.1,0-0.3-0.1-0.3-0.2c-0.1-0.1,0-0.2,0.1-0.3c0-0.1,0.2-0.1,0.2-0.1
	C66.2,34.9,66.3,35.1,66.3,35.2L66.3,35.2z"/>
<path d="M23.1,35c0.1,0.1-0.1,0.2-0.1,0.3c-0.1,0.3-0.2,0.5-0.4,0.8c-0.3,0.4-0.8,0.4-1.3,0.5l-0.1-0.1C21.7,35.8,22.3,35.3,23.1,35
	L23.1,35L23.1,35z"/>
<path d="M65.5,35.4c0,0.2-0.1,0.2-0.3,0.3c-0.2,0-0.3-0.1-0.3-0.2c-0.1-0.2,0.1-0.3,0.2-0.4C65.2,35.1,65.4,35.3,65.5,35.4
	L65.5,35.4z"/>
<path d="M25.1,35.4C25,35.4,25.1,35.5,25.1,35.4c0,0.3-0.1,0.3-0.2,0.4c-0.2,0-0.3-0.1-0.4-0.2c-0.1-0.2,0-0.4,0.2-0.4
	C24.8,35.2,25,35.2,25.1,35.4L25.1,35.4z"/>
<path d="M68.7,35.9c0.2,0,0.2-0.2,0.4-0.3c0.2,0,0.3,0.1,0.4,0.2c0.1,0.2-0.1,0.3-0.2,0.4c-0.1,0.1-0.4-0.1-0.4,0.1
	c0.1,0.1,0.2,0.2,0.2,0.4c0,0.1-0.2,0.1-0.2,0c-0.5-0.2-1-0.6-1.3-1.1c-0.1-0.2-0.4-0.3-0.2-0.4C68,35.2,68.4,35.6,68.7,35.9
	L68.7,35.9z"/>
<path d="M70.3,35.4c0.1,0.1,0.1,0.2,0,0.3c-0.1,0.2-0.3,0.1-0.5,0.1c-0.1-0.1-0.2-0.2-0.1-0.3c0.1-0.1,0.1-0.2,0.3-0.2
	C70.1,35.2,70.2,35.3,70.3,35.4L70.3,35.4z"/>
<path d="M64,36.3c0.2,0.2,0.3,0.5,0.4,0.7c0,0.1-0.1,0-0.2,0c-0.6-0.3-1.4-0.7-1.6-1.4c-0.1-0.1-0.2-0.2-0.2-0.3
	c0.5-0.1,0.9,0.2,1.2,0.5C63.8,36.1,63.9,36.1,64,36.3L64,36.3z"/>
<path d="M24.1,35.7c0.1,0.2-0.1,0.3-0.2,0.4c-0.2,0-0.3,0-0.4-0.1c-0.1-0.2,0.1-0.4,0.2-0.4C23.9,35.4,24,35.6,24.1,35.7L24.1,35.7z
	"/>
<path d="M66.2,36.1c0,0.1-0.1,0.2-0.2,0.2c-0.1,0-0.3,0.1-0.4-0.1c0-0.1-0.1-0.2,0-0.3C65.8,35.7,66.1,35.9,66.2,36.1L66.2,36.1z"/>
<path d="M70.5,36.3c0.1,0.2-0.1,0.4-0.2,0.4c-0.2,0.1-0.3-0.1-0.4-0.2c-0.1-0.1,0-0.2,0-0.3c0.1-0.1,0.3-0.2,0.5-0.1
	C70.4,36.2,70.5,36.2,70.5,36.3L70.5,36.3z"/>
<path d="M58.4,38.7c0,0.2-0.4,0.2-0.5,0.3c-0.5,0.3-1.2,0.3-1.8,0.3v-0.1C56.7,38.7,57.6,38.5,58.4,38.7L58.4,38.7z"/>
<path d="M33,39.5c0,0.2-0.1,0.2-0.3,0.3c-0.1,0-0.2-0.1-0.3-0.2c-0.1-0.2,0.1-0.3,0.2-0.4C32.8,39.3,32.9,39.4,33,39.5L33,39.5z"/>
<path d="M58.2,39.7c0,0.2-0.1,0.3-0.3,0.4c-0.2,0-0.3-0.1-0.4-0.1c-0.1-0.1,0-0.2-0.1-0.3C57.6,39.4,58,39.4,58.2,39.7L58.2,39.7z"
	/>
<path d="M61.6,39.8c-0.4,0.3-0.9,0.6-1.5,0.6l-0.9,0l-0.1-0.1c0.6-0.7,1.6-0.7,2.5-0.6V39.8L61.6,39.8z"/>
<path d="M28.2,40.2c0,0.2-0.1,0.3-0.2,0.3c-0.2,0-0.3,0-0.4-0.2c-0.1-0.2,0-0.3,0.1-0.4C27.9,39.8,28.1,40,28.2,40.2L28.2,40.2z"/>
<path d="M29.1,40.4c0.1,0.1,0,0.1-0.1,0.2c-0.1,0.1-0.2,0.1-0.3,0c-0.1-0.1-0.2-0.2-0.1-0.3c0.1-0.1,0.2-0.1,0.2-0.2
	C28.9,40.2,29,40.2,29.1,40.4L29.1,40.4z"/>
<path d="M22.4,42.1c-0.2,0.2-0.5-0.1-0.6-0.2c-0.6-0.3-0.6-1-1.2-1.4c0.1-0.2,0.2,0,0.3,0c0.1,0.1,0.2,0.1,0.4,0.2
	C21.8,41,22,41.6,22.4,42.1L22.4,42.1z"/>
<path d="M73.3,35.3c-0.3-0.5-0.8-0.7-1.3-0.7c-0.5,0-0.8,0.3-1,0.7c-0.1,0.4,0,0.7,0.3,1c0.1,0.1,0.3,0,0.3-0.1
	c0.1-0.2-0.2-0.2-0.2-0.4c-0.1-0.2,0-0.5,0.2-0.6c0.2-0.2,0.5-0.1,0.7-0.1c0.2,0.1,0.4,0.3,0.5,0.5c0.1,0.3,0.1,0.6,0,0.9
	c-0.2,0.4-0.6,0.8-1.1,0.9c-1.4,0.2-17.4,0.1-17.4,0.1c-1.9,0.2-4-0.4-5.6,0.6c-0.7,0.4-1.1,1.2-1.3,1.9c-0.5,0.4-1,0.9-1.4,1.4
	l-0.1-0.1c0.1-0.4,0.3-0.8,0.4-1.2c0.3-0.4,0.3-0.8,0.5-1.2c0.7-1.1,1.3-2.2,2.3-2.9c0.4-0.6,1.2-0.5,1.9-0.5
	c0.7,0.3,1.6,0.4,2.4,0.4c0,0,0.1-0.1,0.1-0.1c-0.2-0.2-0.6-0.3-0.9-0.5c-0.7-0.3-1.4,0.1-2.1,0.1c0,0-0.1-0.1-0.1-0.1
	c0.7-0.5,1.4-0.8,2.2-1.2c0.6-0.3,1.3-0.5,1.9-0.8c0.3,0,0.5-0.2,0.8-0.1l0.9-0.2c0,0,0.1,0.1,0.1,0.1c0.8-0.3,1.8,0,2.7,0l0.1,0.1
	l0.8,0.2c0.3,0,0.5,0.4,0.8,0.4c0.2-0.2-0.2-0.4-0.3-0.5c0.4-0.1,0.8,0,1.2,0.2l-0.2,0.2c-0.1,0.2,0.1,0.3,0.2,0.4
	c0.1,0,0.2-0.1,0.3-0.1c0.2-0.2,0-0.3,0.1-0.5c1.3,0.2,2.5,0.5,3.7,1.1c0.3,0.1,0.6,0.4,1,0.3c-0.4-0.3-0.9-0.5-1.3-0.7
	c-0.3-0.2-0.7-0.2-0.9-0.4c0.1-0.1,0.2-0.1,0.2-0.1c0.6-0.1,1.1-0.5,1.5-1c0-0.1,0.2-0.1,0.2-0.2c-0.2-0.2-0.4,0.1-0.6,0
	c-0.7,0.1-1,1-1.8,1.2c-0.9-0.2-1.8-0.4-2.7-0.7c-0.4-0.1-0.9-0.1-1.3-0.3l-1-0.1h-1.8c0,0-0.1-0.1-0.1-0.1c0.6-0.2,1.2-0.5,1.8-0.7
	l4.7-2.1c0.5-0.4,0.9-0.9,1.3-1.4c0-0.1-0.1-0.3-0.2-0.3c-0.1-0.1-0.3,0-0.3,0.1c-0.2,0.2,0,0.4,0,0.5c-0.2,0.3-0.5,0.5-0.8,0.7
	c-0.1,0-4.8,2.2-4.8,2.2c-0.7,0.3-1.4,0.6-2.1,0.8l-1,0.2c-0.1,0.2-0.2,0.3-0.4,0.4c-0.3,0.1-0.5,0.2-0.8,0.2
	c-2.3,0.9-4.6,1.8-6.4,3.6c0.1-0.2,0.2-0.5,0.2-0.7c0-0.3,0-0.6-0.2-0.8c0-0.1-0.2-0.4-0.1-0.5l-0.3,0.2c-0.2,0.4-0.3,1.1-0.1,1.5
	c0.1,0.3,0.3,0.7,0.1,1c-0.8,1-1.3,2.3-1.9,3.4c-0.2,0-0.3-0.2-0.4-0.4c0.6-0.8,1.1-1.6,1.2-2.6c0.1-0.1,0-0.3,0.2-0.4
	c0-0.3,0.2-0.6,0-0.8c0.1-0.4-0.5-0.7-0.1-1l-0.3,0.2c-0.8,1,0.4,2.5-0.5,3.4V39c-0.2,0.3-0.4,0.6-0.7,0.8c-0.4-0.2-0.6-0.7-0.8-1
	c-0.4-0.4-0.4-1.1-0.2-1.6c0.2-0.5-0.1-1-0.2-1.4l-0.2-0.1c-0.4,0.5-0.6,1.4-0.2,2.1c0.2,0.3,0.2,0.8,0.5,1c0.2,0.5,0.5,0.8,0.8,1.3
	c0.1,0.2-0.1,0.2-0.2,0.3c-0.2-0.1-0.2-0.4-0.3-0.5c-0.6-1.2-1.3-2.2-2.2-3.2c0-0.2-0.2-0.3-0.1-0.5c0.3-0.3,0.4-0.9,0.2-1.3
	c0-0.1-0.1-0.2-0.1-0.3l-0.3-0.2c0,0.6-0.4,1.2-0.2,1.8v0c-1.8-1.4-3.8-2.6-5.8-3.5l-0.2,0.4c0.5,0.1,1.9,1,1.9,1
	c0.6,0.2,1.2,0.6,1.7,0.9c2.4,1.3,3.9,3.5,5,5.9c0,0.2,0.2,0.4,0.1,0.6c-0.4-0.6-0.9-0.9-1.3-1.3c-0.1-0.8-0.6-1.6-1.3-2
	c-0.3-0.4-0.8-0.4-1.3-0.5l-6.4,0c-5.2-0.1-9.9,0.2-15,0.1c-0.7-0.1-1.6-0.3-1.8-1.1c-0.1-0.3-0.1-0.7,0-1c0.2-0.3,0.5-0.4,0.9-0.5
	c0.3,0,0.5,0.3,0.6,0.5c0,0.2-0.2,0.4-0.3,0.6c0,0.1,0.1,0.2,0.2,0.2c0.2-0.1,0.4-0.3,0.5-0.6c0-0.1,0.1-0.3-0.1-0.4
	c-0.1-0.4-0.5-0.6-0.8-0.7c-0.4,0-0.9,0.1-1.2,0.4c-0.4,0.4-0.4,1-0.3,1.5c0.3,0.8,1.1,1.3,1.9,1.4l17,0.1c1.7,0.1,3.5-0.2,5.2,0.1
	c0.6,0.2,1.3,0.7,1.4,1.3c0,0-0.1,0-0.1,0c-1.4-0.9-3.2-1.2-5-1c-0.7,0-1.3,0.2-2,0.4c-0.3,0.1-0.6-0.1-0.9-0.3
	c-0.6-0.6-1.7-0.5-2.5-0.3c0,0.1,0,0.1,0,0.1c0.9-0.1,1.4,0.7,2.1,0.8c0.2,0,0.3-0.2,0.5,0c-0.8,0.4-1.6,0.8-2.4,1.1
	c-0.3-0.1-0.4-0.3-0.6-0.4c-0.3-0.4-0.9-0.2-1.4-0.2c-0.2,0-0.3-0.1-0.4,0c0.1,0.3,0.5,0.4,0.8,0.6c0.4,0.2,0.9,0,1.3,0.2
	c-0.1,0.1-0.2,0.2-0.4,0.2c-0.8,0.3-1.5,1.1-2.4,1c-1,0.1-1.9-0.2-2.6-0.8c-0.3-0.7-1-1.1-1.8-1c-0.1,0-0.1,0-0.1,0.1
	c0.4,0.2,0.7,0.7,1.1,1c0.2,0.3,0.7,0,0.9,0.3c0.3,0.2,0.8,0.4,1.1,0.5c0.3,0.1,0.6,0.2,0.9,0.2l-0.1,0.1c-1.6,0.5-3.4,0.6-5.2,0.5
	c-0.5,0-1-0.2-1.6-0.2c0.1,0.1,0.3,0.2,0.4,0.2c-0.1,0.1-0.3,0.1-0.5,0.1c-0.2,0.1-0.5,0.1-0.7,0.2c-0.3,0-0.5,0.1-0.8,0.2
	c-0.3,0.3-0.6,0.7-1,0.8c0,0.1,0,0.2,0.1,0.2c0.3-0.1,0.8,0,1.1-0.2c0.6-0.1,0.9-0.7,1.4-0.9c0.5-0.4,1.2-0.3,1.8-0.2
	c0.3,0.1,0,0.2,0.1,0.5c0.1,0.1,0.3,0.3,0.5,0.2c0,0,0.1-0.1,0.1-0.1c0.1-0.1,0.1-0.3,0-0.4c0.2-0.2,0.6,0,0.8-0.1
	c0.7,0,1.3-0.2,2-0.2c0.1,0,0.2-0.1,0.3,0c-0.1,0.1-0.2,0.2-0.2,0.4c0,0.2,0.2,0.2,0.3,0.3c0.2-0.1,0.3-0.2,0.3-0.4
	c0-0.1-0.2-0.1-0.3-0.2c0.4-0.2,0.8-0.2,1.2-0.4c0.3-0.1,0.5-0.1,0.7-0.2c0.2,0,0.4-0.2,0.6-0.1c-0.1,0.3-0.2,0.6-0.4,0.8
	c-0.3,0.9-0.5,2.2,0,3.1c0.1,0,0.1,0,0.1,0c-0.4-0.9-0.2-2,0.2-2.9c0.2-1.5,1.8-1.9,2.9-2.5l0.1,0.1c-0.3,0.8-0.7,1.5-0.7,2.4
	c0,0.2-0.1,0.3,0,0.4c0.3-0.2,0.5-0.5,0.6-0.8c0.1-0.8-0.3-1.8,0.5-2.4c1.4-0.6,2.8-1.3,4.4-1.3c0.1,0.1,0.2,0,0.2,0.1
	c-0.3,0.4-0.9,0.8-1,1.2c-0.6,0.8-0.5,2.1-0.3,3c0.2,0.5-0.3,0.8-0.5,1.3c-0.1,0.1-0.1,0.4-0.2,0.6l0.3,0c0.3-0.3,0.6-0.7,0.6-1.2
	c0,0.2,0.2,0.3,0.3,0.4c0.1-0.2-0.1-0.3-0.1-0.5c0.3-0.2,0.4,0.2,0.6,0.3c0.4,0.1,0.7,0.2,1.1,0.2l0.1-0.1c-0.4-0.6-1.2-0.7-1.8-0.7
	c-0.3-0.6-0.3-1.3-0.3-2c0.1-0.4,0.1-0.8,0.3-1.1c0.1-0.2,0.3-0.5,0.5-0.7c0.3-0.3,0.7-0.5,1.1-0.6h0.1c0,0,0,0.1,0,0.1
	c-0.5,0.4-0.5,0.9-0.8,1.3c-0.3,0.4-0.4,1-0.2,1.5c0.1,0.2,0.1,0.6,0.3,0.7c0.2-0.3,0.2-0.7,0.4-1.1c-0.1-0.6-0.4-1.1-0.1-1.7
	c0.2-0.4,0.5-0.6,0.9-0.8c1-0.1,1.8,0.4,2.6,0.8c0.2,0.1,0.5,0.2,0.5,0.5c0,0.5-0.3,1-0.6,1.2c-0.5,0.3-1.2,0.3-1.6,0
	c-0.3-0.3-0.4-0.7-0.3-1.1c0.2-0.2,0.5-0.4,0.8-0.3c0.2,0.1,0.3,0.3,0.6,0.2c0.1-0.1,0.1-0.2,0.1-0.3c-0.2-0.1-0.3-0.4-0.5-0.4
	c-0.3-0.1-0.7,0-1,0.2c-0.4,0.3-0.5,0.8-0.4,1.2c0.1,0.6,0.5,1,1.1,1.1c0.8,0.2,1.6-0.1,2.1-0.7c0.2-0.2,0.3-0.5,0.4-0.8
	c0.8,0.5,1.5,1.4,1.8,2.3c0,0.3,0.1,0.6,0,0.9l0.6,0.1c-0.1-0.1,0-0.3,0.1-0.4c0.2-1.2,0.9-2.1,1.8-2.9c0.3-0.2,0.2,0.2,0.3,0.4
	c0.3,0.7,0.9,1.1,1.5,1.3c0.7,0.1,1.4-0.1,1.9-0.6c0.2-0.4,0.5-1,0.1-1.5c-0.2-0.3-0.6-0.5-1-0.5c-0.5,0-0.7,0.3-1,0.7
	c0,0.1,0,0.3,0.1,0.4c0.1,0,0.2,0,0.3-0.1c0-0.3,0.3-0.4,0.5-0.5c0.2-0.1,0.4,0,0.6,0.1c0.2,0.2,0.2,0.4,0.2,0.7
	c0,0.3-0.3,0.7-0.6,0.8c-0.5,0.3-1.2,0.1-1.7-0.2c-0.2-0.2-0.3-0.5-0.5-0.8c0-0.3-0.1-0.5,0-0.8c0.8-0.5,1.6-0.8,2.5-0.9
	c0.4,0.1,0.7,0.3,0.9,0.6c0.8,0.8-0.2,2,0.4,2.9c0.2,0,0.2-0.3,0.3-0.5c0.3-0.6-0.1-1.3-0.2-1.9c-0.2-0.4-0.3-0.7-0.7-1
	c0.1,0,0.1,0,0.2,0c0.4,0.2,0.8,0.5,1.1,0.9c0.5,0.8,0.8,1.8,0.7,2.9c-0.1,0.5-0.7,0.8-1.1,1c-0.2,0.1-0.4,0.4-0.5,0.6
	c0.2,0.1,0.5,0,0.7-0.1c0.3-0.1,0.5-0.5,0.8-0.7c0,0,0,0.1,0,0.1c0,0.2-0.1,0.5,0.1,0.5c0.1-0.2,0.1-0.6,0.2-0.9
	c0.2,0.2,0.3,0.6,0.3,0.9c0.2,0.3,0.4,0.7,0.8,0.8c0.1-0.2,0-0.3-0.1-0.5c-0.1-0.4-0.4-0.7-0.7-1c-0.6-0.8-0.3-2.2-0.8-3.1
	c-0.2-0.5-0.5-0.9-0.9-1.3l0.1-0.1c0.9,0,1.6,0.3,2.4,0.4c1,0.5,2.4,0.4,2.8,1.6c0.2,0.7,0.5,1.4,1,1.9l0.1,0c0.1-0.2,0.1-0.5,0-0.7
	c-0.1-0.9-0.9-1.1-1.3-1.8l0.1-0.1c0.4,0.1,0.9,0.2,1.3,0.4c1.4,0.4,2.4,1.8,2.5,3.2c0,1.1-0.2,2.1-0.6,3c-0.1,0.1-0.3,0.3-0.1,0.4
	c0.2-0.1,0.2-0.4,0.3-0.5c0.6-1,0.9-2.3,0.6-3.5c0-0.2-0.3-0.4-0.2-0.6c0.1,0.1,0.2,0.1,0.3,0.2c0.1-0.1,0.3-0.1,0.3-0.2
	c0-0.1,0.1-0.2,0-0.3c-0.1-0.2-0.3-0.2-0.5-0.1c-0.1,0.1-0.2,0.2-0.2,0.4c-0.2-0.3-0.3-0.7-0.6-0.9l0-0.1c0.8,0.3,1.5,0.6,2.3,0.9
	c0.2,0.1,0.4,0.2,0.6,0.2c0.7,0.3,1.4,0.4,2.1,0.5c0.5-0.1,1,0.2,1.5,0.1v0l0,0c-0.2-0.2-0.6,0-0.8-0.2c-1.2-0.1-2.4-0.4-3.4-0.9
	c0-0.1,0.1,0,0.1,0c0.2-0.1,0.3-0.2,0.3-0.4c-0.1-0.1-0.2-0.2-0.4-0.2c-0.1,0.1-0.2,0.2-0.3,0.3c0,0.1,0.1,0.3,0.3,0.3
	c0,0-0.1,0-0.2,0c-0.5-0.2-1.1-0.5-1.6-0.7c-0.2,0-0.3-0.2-0.5-0.2c-0.4-0.2-0.8-0.4-1.2-0.5c-1.1-0.6-2.4-0.9-3.5-1.3
	c-0.3-0.1-0.5-0.1-0.8-0.2c-0.4-0.1-0.9-0.2-1.3-0.4c-1.5-0.4-3.5-0.4-4.8,0.4c-0.2-0.1-0.3,0.3-0.4,0.1c0.4-1,1.4-1.3,2.4-1.3
	c7-0.1,13.6-0.1,20.5-0.2c0.8,0,1.6-0.3,2-1C73.4,36.5,73.5,35.8,73.3,35.3L73.3,35.3z M45.5,41.8c-0.1,0.2-0.2,0.4-0.2,0.6l-0.1,0
	c0.1-0.3-0.2-0.4-0.1-0.7C45,41.5,45,41.3,44.8,41c-0.2-0.3,0.1-0.4,0.3-0.6c0.2,0.1,0.3,0.3,0.5,0.5C45.7,41.3,45.5,41.5,45.5,41.8
	L45.5,41.8z"/>
<path d="M64.5,40.7c0,0.1,0.1,0.1,0.1,0.2c-0.6,0.5-1.5,0.7-2.3,0.7c-0.1,0-0.1,0.1-0.2,0.1c-0.1,0-0.1-0.1,0-0.1
	C62.6,40.8,63.5,40.5,64.5,40.7L64.5,40.7z"/>
<path d="M61.6,41c0.1,0.2-0.1,0.4-0.3,0.5c-0.2,0-0.3-0.1-0.4-0.3c-0.1-0.1,0.1-0.2,0.1-0.3C61.2,40.7,61.6,40.7,61.6,41L61.6,41z"
	/>
<path d="M28.5,41c0,0.1,0,0.3-0.1,0.4c-0.1,0.1-0.2,0.1-0.3,0.1c-0.1,0-0.2-0.2-0.2-0.3c0-0.2,0.1-0.2,0.2-0.3
	C28.2,40.9,28.3,40.9,28.5,41L28.5,41z"/>
<path d="M25.3,42.2v0.1c-0.4,0.1-0.8,0-1.1-0.3c-0.2-0.4-0.5-0.7-0.9-0.9c0-0.1-0.1-0.1,0-0.2C24.1,41,24.7,41.7,25.3,42.2
	L25.3,42.2z"/>
<path d="M67.1,41c-0.4,0.6-0.8,1.3-1.5,1.6c-0.1,0-0.2,0.2-0.3,0.1c0.3-0.7,0.9-1.4,1.6-1.7C66.9,41,67,41,67.1,41L67.1,41z"/>
<path d="M29.5,41.2c0,0.2-0.1,0.2-0.2,0.3c-0.1,0-0.2-0.1-0.3-0.2c-0.1-0.2,0.1-0.2,0.2-0.3C29.2,41,29.4,41.1,29.5,41.2L29.5,41.2z
	"/>
<path d="M69.3,41.3c-0.2,0.2-0.1,0.6-0.2,0.8c-0.4,0.4-0.6,0.9-1.2,0.9c-0.1-0.2,0.1-0.4,0.2-0.5c0.2-0.5,0.6-1.1,1.2-1.4L69.3,41.3
	L69.3,41.3z"/>
<path d="M19.9,41.5c0.1,0.1,0.1,0.2,0,0.4c-0.1,0.1-0.3,0.1-0.4,0.1c-0.2-0.1-0.2-0.3-0.1-0.4C19.5,41.3,19.8,41.3,19.9,41.5
	L19.9,41.5z"/>
<path d="M18.9,41.7c0,0.1,0.1,0.2,0.1,0.2c-0.1,0.1-0.1,0.2-0.2,0.2c-0.2,0-0.3-0.1-0.4-0.2c0-0.2,0-0.3,0.2-0.4
	C18.7,41.5,18.8,41.6,18.9,41.7L18.9,41.7z"/>
<path d="M21,41.8c0,0.1,0.1,0.4-0.1,0.4c-0.2,0.1-0.4-0.1-0.5-0.2c0-0.2,0.1-0.3,0.2-0.4C20.7,41.6,20.9,41.6,21,41.8L21,41.8z"/>
<path d="M23.8,42c0,0.1,0,0.3-0.1,0.3c-0.1,0.1-0.2,0.1-0.3,0c0-0.1-0.2-0.2-0.1-0.3c0.1-0.1,0.1-0.1,0.2-0.2
	C23.6,41.9,23.8,41.9,23.8,42L23.8,42z"/>
<path d="M71,42.1c-0.1,0.1-0.1,0.3-0.3,0.3c-0.2,0-0.3,0-0.4-0.2c-0.1-0.2,0.1-0.3,0.2-0.4C70.7,41.9,71,41.9,71,42.1L71,42.1z"/>
<path d="M67.8,42.2c0,0.1-0.1,0.2-0.2,0.3c-0.2,0.1-0.5-0.1-0.5-0.3c0-0.2,0.2-0.3,0.3-0.3C67.6,41.9,67.7,42,67.8,42.2L67.8,42.2z"
	/>
<path d="M70,42.2c0,0.1-0.1,0.2-0.2,0.3c-0.1,0.1-0.3,0-0.4-0.1c-0.2-0.1,0-0.3,0.1-0.4C69.6,42,69.9,42,70,42.2L70,42.2z"/>
<path d="M19.5,42.5c0,0.2,0,0.4-0.2,0.4c-0.2,0-0.3-0.1-0.4-0.2c0-0.2,0-0.3,0.2-0.4C19.2,42.3,19.4,42.4,19.5,42.5L19.5,42.5z"/>
<path d="M66.9,42.7c0.1,0.2-0.1,0.4-0.2,0.5c-0.1,0-0.2,0-0.3-0.1c-0.1-0.1-0.2-0.3,0-0.4C66.5,42.4,66.8,42.5,66.9,42.7L66.9,42.7z
	"/>
<path d="M28.9,42.9c0.1,0.2-0.1,0.2-0.2,0.3c-0.1,0-0.2,0.1-0.3,0c-0.1-0.1-0.2-0.2-0.1-0.4c0.1-0.1,0.1-0.1,0.2-0.2
	C28.7,42.6,28.8,42.8,28.9,42.9L28.9,42.9z"/>
<path d="M70.7,43c0,0.1-0.1,0.2-0.1,0.3c-0.1,0.1-0.3,0.1-0.4,0.1C70,43.2,70,43.1,70,42.9c0.1-0.1,0.1-0.2,0.2-0.2
	C70.4,42.8,70.6,42.8,70.7,43L70.7,43z"/>
<path d="M69.6,43.1c0.1,0.2-0.1,0.3-0.3,0.4c-0.1,0-0.2,0-0.2,0.1c0.5,0.2,0.7,0.6,1.1,0.9v0.1c-0.6,0-1.3-0.2-1.7-0.7
	c-0.1-0.1-0.3-0.1-0.5-0.2c0.2-0.2,0.6-0.1,1-0.2c0.2-0.2-0.3-0.4,0-0.6c0.1,0,0.2-0.1,0.3-0.1C69.4,42.9,69.5,42.9,69.6,43.1
	L69.6,43.1z"/>
<path d="M62.4,43.1c0,0.1-0.1,0.2-0.1,0.3c-0.1,0.1-0.3,0.1-0.4,0.1c-0.1-0.1-0.2-0.2-0.2-0.4C61.9,42.8,62.4,42.8,62.4,43.1
	L62.4,43.1z"/>
<path d="M23.4,43.7c-0.1,0.2-0.1,0.3-0.3,0.3c-0.1,0-0.3-0.1-0.3-0.2c0-0.1,0.1-0.2,0.1-0.3C23.1,43.3,23.4,43.4,23.4,43.7
	L23.4,43.7z"/>
<path d="M24.8,43.5c0,0.2-0.3,0.4-0.3,0.6c-0.3,0.6-0.7,1.1-1.4,1.2c-0.1-0.2,0.2-0.4,0.3-0.5c0.3-0.6,0.8-0.9,1.3-1.3H24.8
	L24.8,43.5z"/>
<path d="M62,43.7c0,0.2-0.2,0.3-0.3,0.4c-0.2,0.1-0.3-0.1-0.4-0.1c-0.1-0.1-0.1-0.3,0-0.4C61.6,43.3,61.9,43.5,62,43.7L62,43.7z"/>
<path d="M63.1,43.8c0,0.2-0.1,0.3-0.3,0.4c0-0.1-0.1,0-0.2,0c-0.1-0.1-0.2-0.2-0.2-0.3c0.1-0.1,0.1-0.2,0.2-0.2
	C62.8,43.6,63.1,43.6,63.1,43.8L63.1,43.8z"/>
<path d="M27.5,43.8c0,0.2-0.1,0.3-0.3,0.4c-0.2,0-0.3-0.1-0.3-0.2c0-0.2,0.1-0.3,0.2-0.4C27.4,43.5,27.4,43.7,27.5,43.8L27.5,43.8z"
	/>
<path d="M28.7,43.9c-0.1,0.2-0.2,0.3-0.3,0.3c-0.1,0-0.3-0.1-0.3-0.2c0-0.2,0.1-0.3,0.2-0.4C28.5,43.6,28.7,43.7,28.7,43.9
	L28.7,43.9z"/>
<path d="M66.9,45.1c0.1,0.1,0.2,0.2,0.2,0.3c-0.3,0.1-0.5-0.2-0.8-0.2c-0.4-0.4-0.7-0.9-0.9-1.4c0.2-0.2,0.3,0,0.5,0.1
	C66.3,44.2,66.7,44.6,66.9,45.1L66.9,45.1z"/>
<path d="M67.5,43.9c0.1,0.1,0,0.3,0,0.4c-0.1,0.2-0.3,0.1-0.5,0.1c-0.1-0.1-0.2-0.2-0.1-0.4c0.1-0.1,0.2-0.2,0.3-0.2
	C67.3,43.7,67.4,43.8,67.5,43.9L67.5,43.9z"/>
<path d="M30.3,44.3c0,0.1,0.1,0.4-0.1,0.4c-0.2,0-0.4,0-0.4-0.2c-0.1-0.2,0.1-0.2,0.2-0.4C30.1,44.2,30.2,44.2,30.3,44.3L30.3,44.3z
	"/>
<path d="M63.1,45.5c0.2,0.4,0.4,0.8,0.5,1.2c-0.1,0.1,0.1,0.2,0,0.3h-0.1c-0.8-0.6-1-1.4-1.3-2.1c-0.1,0-0.1-0.1-0.1-0.2
	c0.2-0.2,0.3,0.2,0.5,0.2L63.1,45.5L63.1,45.5z"/>
<path d="M32.6,44.9C32.6,44.9,32.6,44.9,32.6,44.9c-0.7,0.5-1.7,0.8-2.5,0.4c0-0.1,0-0.1,0.1-0.2c0.5-0.2,1-0.4,1.5-0.3L32.6,44.9
	L32.6,44.9z"/>
<path d="M28.6,45c-0.6,0.4-1.1,1.1-1.9,1.3c-0.1,0.1-0.2,0.2-0.4,0.1c0.3-0.9,1.3-1.5,2.3-1.5V45L28.6,45z"/>
<path d="M62,45.8c0.1,0.1,0,0.3-0.1,0.4c-0.1,0.1-0.3,0.1-0.3,0c-0.2-0.1-0.2-0.2-0.2-0.4c0.1-0.1,0.2-0.1,0.3-0.2
	C61.8,45.6,61.9,45.6,62,45.8L62,45.8z"/>
<path d="M60.6,45.8c-0.1,0.2-0.4,0.4-0.6,0.5c-0.6,0.2-1.1-0.1-1.7-0.2c0-0.1,0.2-0.1,0.3-0.2c0.6-0.1,1.2-0.2,1.8-0.1
	C60.4,45.8,60.5,45.8,60.6,45.8L60.6,45.8z"/>
<path d="M28.6,46.4c-0.1,0.1-0.1,0.2-0.2,0.3c-0.1,0.1-0.2,0-0.3-0.1c0-0.1-0.2-0.2-0.1-0.3c0-0.1,0.2-0.2,0.3-0.2
	C28.5,46.1,28.6,46.2,28.6,46.4L28.6,46.4z"/>
<path d="M29.7,46.5c-0.1,0.1-0.1,0.3-0.2,0.3c-0.1,0-0.2,0-0.3-0.1C29,46.6,29,46.5,29,46.4c0-0.1,0.2-0.1,0.2-0.2
	C29.4,46.2,29.6,46.4,29.7,46.5L29.7,46.5z"/>
<path d="M61.7,46.7c0,0.1-0.1,0.2-0.1,0.3c-0.1,0.1-0.3,0.1-0.4,0.1c-0.1,0-0.2-0.2-0.2-0.2c-0.1-0.1,0.1-0.2,0.1-0.4
	C61.3,46.3,61.6,46.4,61.7,46.7L61.7,46.7z"/>
<path d="M62.5,46.7c0,0.1,0.1,0.2,0,0.2c-0.1,0.1-0.2,0.3-0.4,0.2C62,47.2,62,47,61.9,47c-0.1-0.2,0-0.4,0.2-0.5
	C62.3,46.5,62.4,46.6,62.5,46.7L62.5,46.7z"/>
<path d="M29,47.2c0,0.2,0,0.4-0.2,0.5c-0.2,0-0.4,0-0.5-0.2c0-0.2,0-0.4,0.2-0.5C28.7,46.9,28.9,47,29,47.2L29,47.2z"/>
<path d="M30,47.1c0,0.5-0.1,1.1-0.6,1.4c-0.3,0.1-0.6,0.3-0.8,0.1v-0.1C28.9,48,29.6,47.6,30,47.1L30,47.1z"/>
<path d="M59,47.5c0.1,0.1-0.1,0.2-0.1,0.3c-0.1,0.1-0.3,0.1-0.4,0c-0.1-0.1-0.1-0.2-0.1-0.4c0-0.1,0.1-0.2,0.2-0.2
	C58.7,47.2,58.9,47.4,59,47.5L59,47.5z"/>
<path d="M31.8,48.3c0.2,0.4,0.1,0.9,0.2,1.4c-0.3,0-0.4-0.3-0.6-0.5c-0.4-0.5-0.3-1.2-0.5-1.8c0-0.1,0.1-0.1,0.1,0
	c0.3,0.2,0.5,0.5,0.7,0.7C31.6,48.2,31.8,48.2,31.8,48.3L31.8,48.3z"/>
<path d="M59.8,47.6c0,0.1-0.2,0.2-0.2,0.3c-0.1,0-0.2-0.1-0.3-0.2c-0.1-0.2,0.1-0.2,0.2-0.3C59.6,47.4,59.8,47.4,59.8,47.6
	L59.8,47.6z"/>
<path d="M61.9,49.2c0,0.1,0,0.2-0.1,0.1h-0.1c-0.5-0.5-1-1-0.9-1.7l0.1,0C61.4,48,61.9,48.5,61.9,49.2L61.9,49.2z"/>
<path d="M60.6,48.6c0,0.1-0.1,0.2-0.2,0.3c-0.2,0.1-0.5,0-0.5-0.2c0-0.2,0.2-0.3,0.3-0.4C60.4,48.3,60.5,48.5,60.6,48.6L60.6,48.6z"
	/>
<path d="M59.4,49c-0.2,0.7-0.9,1-1.4,1.5c-0.1-0.1-0.1-0.2,0-0.3c0.2-0.7,0.7-1.3,1.3-1.6C59.7,48.7,59.4,48.9,59.4,49L59.4,49z"/>
<path d="M60.8,49.5c0,0.2-0.2,0.2-0.2,0.3c-0.1,0-0.3-0.1-0.4-0.2c0-0.2,0.1-0.2,0.2-0.3C60.5,49.3,60.7,49.4,60.8,49.5L60.8,49.5z"
	/>
<path d="M47.8,17.6c0.2,0,0.4,0.2,0.4,0.4c0,0.2-0.2,0.4-0.4,0.4h-5.2c-0.2,0-0.4-0.2-0.4-0.4c0-0.2,0.2-0.4,0.4-0.4H47.8L47.8,17.6
	z M44.1,18.4c0.5,0,0-0.6-0.2-0.6h-0.5c-0.5,0,0,0.6,0.2,0.6H44.1L44.1,18.4z M46.2,18.4c0.5,0,0-0.6-0.2-0.6h-0.5
	c-0.5,0,0,0.6,0.2,0.6H46.2L46.2,18.4z M47.8,17.8h-0.2c-0.5,0-0.1,0.6,0.2,0.6C48.1,18.4,48.1,17.8,47.8,17.8L47.8,17.8z"/>
<path d="M47.3,23.6l1,0.4l1-0.4L48.9,25l0.8-0.2l-0.3,0.9l0.3,0.8L49,26.4l0.3,1.6l-1-0.4l-1,0.4l0.4-1.6l-0.8,0.2l0.2-0.9l-0.2-0.8
	l0.8,0.1L47.3,23.6L47.3,23.6z M48.8,26.2c0.2,0,0.2-0.3,0.2-0.6c0-0.6-0.5,0-0.7-0.6c-0.2,0.5-0.7,0-0.7,0.5c0,0.4,0,0.6,0.3,0.6
	H48.8L48.8,26.2z M47.8,25.6c0,0.2,0.3,0.1,0.5,0.1c0.2,0,0.5,0.2,0.5-0.1c0-0.3-0.3-0.2-0.5-0.2C48.1,25.4,47.8,25.3,47.8,25.6
	L47.8,25.6z"/>
<polygon points="45,25.7 45,25.5 44.8,25.5 45,25.3 44.9,25.2 45,25.2 45.1,25 45.2,25.2 45.4,25.2 45.3,25.3 45.5,25.5 45.3,25.5 
	45.3,25.7 45.1,25.6 45,25.7 "/>
<polygon points="44.2,26.7 44.2,26.5 44.1,26.5 44.2,26.3 44.1,26.2 44.3,26.2 44.4,26 44.5,26.2 44.7,26.2 44.6,26.3 44.7,26.5 
	44.5,26.5 44.5,26.7 44.4,26.6 44.2,26.7 "/>
<polygon points="45.5,26.6 45.5,26.4 45.4,26.3 45.5,26.2 45.4,26.1 45.6,26.1 45.7,25.9 45.8,26.1 46,26.1 45.9,26.2 46,26.3 
	45.8,26.4 45.8,26.6 45.7,26.4 45.5,26.6 "/>
<polygon points="45.7,27.3 45.7,27.2 45.6,27.2 45.7,27.1 45.6,27 45.7,27 45.8,26.9 45.8,27 45.9,27 45.9,27.1 46,27.2 45.9,27.2 
	45.9,27.3 45.8,27.2 45.7,27.3 "/>
<polygon points="44.5,28.1 44.5,27.8 44.2,27.8 44.4,27.5 44.3,27.3 44.6,27.3 44.7,27 44.9,27.3 45.2,27.3 45.1,27.5 45.3,27.8 
	45,27.8 45,28.1 44.7,27.9 44.5,28.1 "/>
<polygon points="45.1,11.6 45.7,13.1 47.3,12.6 46.5,14 47.8,15 46.2,15.2 46.3,16.9 45.1,15.8 43.9,16.9 44,15.2 42.4,15 43.7,14 
	42.9,12.6 44.5,13.1 45.1,11.6 "/>
<path d="M39.5,45.5c-0.2,0.1-0.3,0.1-0.2,0.3l0.2,0.9c0,0.2,0.1,0.4-0.1,0.6c-0.1,0.2-0.4,0.3-0.6,0.4c-0.2,0-0.5,0.1-0.7,0
	c-0.2-0.1-0.3-0.2-0.4-0.5l-0.2-1C37.4,46,37.3,46,37.1,46l0-0.1l1.2-0.3l0,0.1c-0.2,0.1-0.3,0.1-0.3,0.3l0.2,1
	c0,0.2,0.1,0.6,0.6,0.4c0.6-0.1,0.5-0.6,0.5-0.8l-0.2-0.9c0-0.2-0.1-0.3-0.4-0.2l0-0.1L39.5,45.5L39.5,45.5L39.5,45.5z"/>
<path d="M41.2,45.7c-0.1-0.2-0.4-0.5-0.8-0.4c-0.2,0-0.4,0.2-0.3,0.4c0,0.2,0.1,0.2,0.4,0.3l0.6,0.1c0.1,0,0.4,0.1,0.5,0.5
	c0.1,0.3-0.1,0.7-0.7,0.8c-0.3,0.1-0.5,0-0.6,0c-0.1,0-0.1,0.1-0.1,0.1l-0.1,0l-0.2-0.7l0.1,0c0.1,0.3,0.4,0.6,0.9,0.5
	c0.4-0.1,0.4-0.4,0.4-0.4c0-0.2-0.2-0.2-0.5-0.3l-0.3,0c-0.6-0.1-0.7-0.4-0.7-0.5c0-0.2,0-0.6,0.6-0.7c0.3-0.1,0.5,0,0.6,0
	c0.1,0,0.1-0.1,0.1-0.1l0.1,0L41.2,45.7L41.2,45.7L41.2,45.7z"/>
<path d="M43.5,46.8l-1.3,0.1l0-0.1c0.3,0,0.3-0.1,0.3-0.3L42.4,45c-0.2,0-0.6,0.1-0.6,0.6l-0.1,0l0-0.6l2.1-0.2l0.1,0.6l-0.1,0
	c-0.1-0.5-0.5-0.4-0.7-0.4l0.1,1.6C43.1,46.8,43.2,46.8,43.5,46.8L43.5,46.8L43.5,46.8z"/>
<path d="M46.5,46.8l-0.7,0L45,45.8l-0.1,0l0,0.6c0,0.2,0.1,0.2,0.3,0.3l0,0.1l-1.2,0l0-0.1c0.2,0,0.3,0,0.3-0.3l0-1.3
	c0-0.3-0.1-0.3-0.3-0.3l0-0.1l1.1,0c0.2,0,1,0,1,0.5c0,0.4-0.4,0.5-0.6,0.5l0.7,0.9C46.4,46.7,46.4,46.7,46.5,46.8L46.5,46.8
	L46.5,46.8z M44.9,45.8c0.5,0,0.7-0.1,0.7-0.4c0-0.3-0.1-0.4-0.4-0.4c-0.2,0-0.2,0-0.2,0.1L44.9,45.8L44.9,45.8z"/>
<path d="M48.8,47.1L47.6,47l0-0.1c0.2,0,0.3,0,0.3-0.1c0-0.1-0.1-0.3-0.1-0.4L47,46.3c-0.1,0.2-0.2,0.3-0.2,0.4
	c0,0.1,0.2,0.1,0.3,0.2l0,0.1l-0.7-0.1l0-0.1c0.2,0,0.3-0.1,0.4-0.3l1-1.5l0.1,0l0.6,1.7C48.6,46.9,48.6,47,48.8,47.1L48.8,47.1
	L48.8,47.1z M47.8,46.3l-0.3-0.8l-0.4,0.7L47.8,46.3L47.8,46.3z"/>
<path d="M50.9,47.5l-2-0.4l0-0.1c0.2,0,0.3,0,0.3-0.2l0.3-1.4c0-0.2-0.1-0.2-0.3-0.3l0-0.1l1.2,0.2l0,0.1c-0.2,0-0.4-0.1-0.4,0.2
	l-0.3,1.4c0,0.1,0,0.2,0.3,0.2c0.5,0.1,0.8-0.1,1-0.4l0.1,0L50.9,47.5L50.9,47.5z"/>
<path d="M52.2,47.8L51,47.6l0-0.1c0.2,0,0.3,0,0.4-0.1l0.3-1.4c0-0.2-0.1-0.2-0.3-0.3l0-0.1l1.2,0.3l0,0.1c-0.2,0-0.3-0.1-0.4,0.1
	l-0.3,1.4C51.9,47.7,52,47.7,52.2,47.8L52.2,47.8L52.2,47.8z"/>
<path d="M54.7,48.2L53.5,48l0-0.1c0.2,0,0.3,0,0.3-0.1c0-0.1-0.1-0.3-0.1-0.4l-0.8-0.1c-0.1,0.2-0.2,0.3-0.2,0.4
	c0,0.1,0.2,0.1,0.3,0.2l0,0.1l-0.7-0.1l0-0.1c0.2,0,0.3-0.1,0.4-0.3l1-1.5l0.1,0l0.6,1.6C54.5,48,54.5,48.1,54.7,48.2L54.7,48.2
	L54.7,48.2z M53.7,47.3l-0.3-0.8L53,47.3L53.7,47.3L53.7,47.3z"/>
<path d="M45.6,24c0-0.7-0.4,0-0.6-0.7c-0.2,0.5-0.6,0.1-0.6,0.6c0,0.2,0.1,0.3,0.2,0.4v0.2c0,0.1,0,0.1,0.1,0.1h0.8
	c0.1,0,0.1,0,0.1-0.1v-0.2C45.5,24.3,45.6,24.2,45.6,24L45.6,24z M45,24.2c-0.2,0-0.5,0.1-0.5-0.1c0-0.4,0.2-0.3,0.4-0.3
	c0.2,0,0.5-0.1,0.5,0.3C45.4,24.3,45.2,24.2,45,24.2L45,24.2z"/>
<path d="M51.8,32.8c0.2,0,0.3-0.1,0.3-0.3c0-0.2-0.1-0.3-0.3-0.3c-0.2,0-0.3,0.1-0.3,0.3C51.5,32.7,51.6,32.8,51.8,32.8L51.8,32.8z"
	/>
<path d="M50.3,22.2c0,0-0.2,0.3-0.2,0.3c0,0.1,0.1,0.2,0.2,0.2c0.1,0,0.2-0.1,0.2-0.2C50.4,22.5,50.3,22.2,50.3,22.2L50.3,22.2z"/>
<path d="M39.7,22.2c0,0-0.2,0.3-0.2,0.3c0,0.1,0.1,0.2,0.2,0.2c0.1,0,0.2-0.1,0.2-0.2C39.9,22.5,39.7,22.2,39.7,22.2L39.7,22.2z"/>
<path d="M42.4,22.2c0,0-0.2,0.3-0.2,0.3c0,0.1,0.1,0.2,0.2,0.2c0.1,0,0.2-0.1,0.2-0.2C42.5,22.5,42.4,22.2,42.4,22.2L42.4,22.2z"/>
<path d="M45,22.2c0,0-0.2,0.3-0.2,0.3c0,0.1,0.1,0.2,0.2,0.2c0.1,0,0.2-0.1,0.2-0.2C45.2,22.5,45,22.2,45,22.2L45,22.2z"/>
<path d="M47.6,22.2c0,0-0.2,0.3-0.2,0.3c0,0.1,0.1,0.2,0.2,0.2c0.1,0,0.2-0.1,0.2-0.2C47.8,22.5,47.6,22.2,47.6,22.2L47.6,22.2z"/>
<path d="M39.7,25.8c0,0,0.2,0.3,0.2,0.3c0,0.1-0.1,0.2-0.2,0.2c-0.1,0-0.2-0.1-0.2-0.2C39.6,26.1,39.7,25.8,39.7,25.8L39.7,25.8z"/>
<path d="M39.7,29.4c0,0,0.2,0.3,0.2,0.3c0,0.1-0.1,0.2-0.2,0.2c-0.1,0-0.2-0.1-0.2-0.2C39.6,29.7,39.7,29.4,39.7,29.4L39.7,29.4z"/>
<path d="M40.2,32.1c0,0,0.2,0.3,0.2,0.3c0,0.1-0.1,0.2-0.2,0.2S40,32.5,40,32.4C40,32.4,40.2,32.1,40.2,32.1L40.2,32.1z"/>
<path d="M42.4,33.6c0,0,0.2,0.3,0.2,0.3c0,0.1-0.1,0.2-0.2,0.2c-0.1,0-0.2-0.1-0.2-0.2C42.2,33.9,42.4,33.6,42.4,33.6L42.4,33.6z"/>
<path d="M50.4,25.8c0,0-0.2,0.3-0.2,0.3c0,0.1,0.1,0.2,0.2,0.2c0.1,0,0.2-0.1,0.2-0.2C50.6,26.1,50.4,25.8,50.4,25.8L50.4,25.8z"/>
<path d="M50.4,29.4c0,0-0.2,0.3-0.2,0.3c0,0.1,0.1,0.2,0.2,0.2c0.1,0,0.2-0.1,0.2-0.2C50.6,29.7,50.4,29.4,50.4,29.4L50.4,29.4z"/>
<path d="M50,32.1c0,0-0.2,0.3-0.2,0.3c0,0.1,0.1,0.2,0.2,0.2c0.1,0,0.2-0.1,0.2-0.2C50.1,32.4,50,32.1,50,32.1L50,32.1z"/>
<path d="M47.8,33.6c0,0-0.2,0.3-0.2,0.3c0,0.1,0.1,0.2,0.2,0.2c0.1,0,0.2-0.1,0.2-0.2C47.9,33.9,47.8,33.6,47.8,33.6L47.8,33.6z"/>
<path d="M45.1,35.2c0,0-0.2,0.3-0.2,0.3c0,0.1,0.1,0.2,0.2,0.2c0.1,0,0.2-0.1,0.2-0.2C45.2,35.5,45.1,35.2,45.1,35.2L45.1,35.2z"/>
<path d="M49.4,29.9c0,0.1,0.1,0.1,0.2,0l0.1-0.3c0,0-0.1-0.1-0.2-0.1c-0.3,0.1-0.6,0.1-0.7,0.4c0,0.2,0.1,0.4,0.3,0.4
	c0.1,0,0.1,0.1,0.2,0.1c0,0.1,0,0.2-0.1,0.2c-0.2-0.2-0.5,0.1-0.7-0.2c0.1-0.3,0.2-0.5,0-0.8c0,0,0.1-0.1,0.1-0.2
	c-0.1-0.2-0.3,0-0.5,0c-0.2,0-0.4,0.1-0.6,0.3c0,0.1,0,0.2,0.1,0.3c0.1,0,0.1,0,0.1,0.1l-0.2,0.1c0,0.1,0,0.1,0.1,0.2
	c-0.1,0-0.2-0.1-0.3-0.2c0-0.1,0-0.4-0.2-0.4c0,0-0.1,0-0.1,0c0,0.1-0.1,0.2-0.1,0.3c0,0.1,0.1,0.3,0.1,0.3s0.5,0.4,0.6,0.6
	c-0.1,0.3-0.1,0.7-0.5,0.9c-0.1,0.1-0.1,0.2-0.1,0.3l0.1,0.1c0.2-0.1,0.6-0.2,0.6-0.5c0.1-0.1,0.2-0.3,0.3-0.4c0.2,0,0.3,0,0.4,0.2
	c-0.1,0.3-0.2,0.4-0.4,0.5c0,0,0,0.1,0,0.1c0.1,0.1,0.2,0.1,0.3,0.1c0.3-0.2,0.4-0.5,0.6-0.6c0,0.2-0.3,0.2-0.1,0.4
	c0.1,0,0.3,0,0.4-0.2c-0.1-0.3,0.4-0.4,0.1-0.7c0-0.2,0.3-0.4,0.2-0.6c-0.1-0.3-0.4-0.3-0.5-0.5C49.1,29.9,49.3,29.9,49.4,29.9
	L49.4,29.9z"/>
<path d="M37.3,33c0.2,0,0.3-0.1,0.3-0.3c0-0.2-0.1-0.3-0.3-0.3c-0.2,0-0.3,0.1-0.3,0.3C36.9,32.8,37.1,33,37.3,33L37.3,33z"/>
<path d="M20.2,43c0.2,0,0.3-0.1,0.3-0.3c0-0.2-0.1-0.3-0.3-0.3c-0.2,0-0.3,0.1-0.3,0.3C19.8,42.8,20,43,20.2,43L20.2,43z"/>
<path d="M31,45.4L31,45.4L31,45.4L31,45.4L31,45.4C31,45.4,31,45.4,31,45.4L31,45.4L31,45.4L31,45.4C31,45.4,31,45.4,31,45.4
	L31,45.4C31,45.3,31,45.3,31,45.4L31,45.4L31,45.4C31,45.3,31,45.3,31,45.4C31,45.4,31,45.4,31,45.4L31,45.4
	C31,45.4,31,45.4,31,45.4L31,45.4L31,45.4z M31,45.4C31,45.4,31,45.4,31,45.4C31,45.3,31,45.3,31,45.4C31,45.3,31,45.3,31,45.4
	L31,45.4L31,45.4z"/>
<path d="M31.1,45.4C31.1,45.3,31.1,45.3,31.1,45.4C31.1,45.3,31.1,45.3,31.1,45.4C31.1,45.3,31.1,45.3,31.1,45.4L31.1,45.4
	C31.1,45.4,31.1,45.4,31.1,45.4C31.1,45.4,31.1,45.4,31.1,45.4C31.1,45.4,31.1,45.4,31.1,45.4C31.1,45.4,31.1,45.4,31.1,45.4
	L31.1,45.4L31.1,45.4L31.1,45.4C31.1,45.4,31.1,45.4,31.1,45.4C31.1,45.4,31.1,45.4,31.1,45.4C31.1,45.4,31.1,45.4,31.1,45.4
	L31.1,45.4C31,45.4,31,45.4,31.1,45.4C31,45.3,31.1,45.3,31.1,45.4C31.1,45.3,31.1,45.3,31.1,45.4C31.1,45.3,31.1,45.3,31.1,45.4
	L31.1,45.4L31.1,45.4L31.1,45.4L31.1,45.4z"/>
<path d="M31.2,45.3C31.2,45.3,31.2,45.3,31.2,45.3L31.2,45.3L31.2,45.3L31.2,45.3L31.2,45.3L31.2,45.3L31.2,45.3L31.2,45.3
	C31.1,45.3,31.1,45.3,31.2,45.3L31.2,45.3L31.2,45.3L31.2,45.3C31.1,45.3,31.1,45.3,31.2,45.3C31.1,45.3,31.1,45.3,31.2,45.3
	L31.2,45.3L31.2,45.3L31.2,45.3L31.2,45.3C31.1,45.3,31.1,45.3,31.2,45.3L31.2,45.3L31.2,45.3L31.2,45.3
	C31.2,45.3,31.2,45.3,31.2,45.3C31.2,45.3,31.2,45.3,31.2,45.3L31.2,45.3L31.2,45.3L31.2,45.3C31.2,45.3,31.2,45.3,31.2,45.3
	C31.2,45.3,31.2,45.3,31.2,45.3L31.2,45.3L31.2,45.3L31.2,45.3L31.2,45.3z"/>
<path d="M31.2,45.4C31.2,45.4,31.2,45.4,31.2,45.4C31.2,45.4,31.2,45.4,31.2,45.4C31.2,45.4,31.2,45.4,31.2,45.4
	C31.2,45.4,31.2,45.4,31.2,45.4C31.2,45.3,31.2,45.3,31.2,45.4C31.2,45.3,31.2,45.3,31.2,45.4C31.2,45.4,31.2,45.4,31.2,45.4
	L31.2,45.4L31.2,45.4z M31.2,45.4C31.2,45.4,31.2,45.4,31.2,45.4C31.2,45.4,31.2,45.4,31.2,45.4C31.2,45.3,31.2,45.3,31.2,45.4
	C31.2,45.3,31.2,45.3,31.2,45.4C31.2,45.4,31.2,45.4,31.2,45.4L31.2,45.4z"/>
<path d="M31.3,45.4C31.3,45.4,31.3,45.4,31.3,45.4C31.3,45.4,31.3,45.4,31.3,45.4C31.3,45.4,31.3,45.4,31.3,45.4
	C31.3,45.4,31.3,45.4,31.3,45.4C31.3,45.4,31.3,45.4,31.3,45.4C31.3,45.4,31.3,45.4,31.3,45.4C31.3,45.4,31.3,45.4,31.3,45.4
	C31.3,45.4,31.3,45.4,31.3,45.4C31.3,45.4,31.3,45.4,31.3,45.4L31.3,45.4L31.3,45.4L31.3,45.4L31.3,45.4L31.3,45.4L31.3,45.4z"/>
<path d="M51.2,21.8L51.2,21.8l-12.2,0v0h0l0,9.3c0,0.9,0.4,1.8,1,2l4.7,3c0.1,0.1,0.3,0.2,0.4,0.2c0.1,0,0.3-0.1,0.4-0.1l4.8-3
	c0.6-0.3,1-1.1,1-2L51.2,21.8L51.2,21.8L51.2,21.8z M50.8,31.2c-0.1,0.7-0.3,1.3-0.8,1.6l-4.6,2.9h0c-0.1,0.1-0.2,0.1-0.4,0.1
	c-0.1,0-0.3,0-0.4-0.1l-4.6-2.9c-0.5-0.3-0.7-0.9-0.8-1.6v-9.1h11.5V31.2L50.8,31.2z"/>
<path d="M46.7,35.3l0.1-0.1C46.8,35.3,46.7,35.3,46.7,35.3L46.7,35.3z"/>
<path d="M37.5,48.1l-1.1,0.1l0-0.1c0.2,0,0.3-0.1,0.3-0.1c0-0.1-0.1-0.3-0.2-0.4l-0.8,0.1c-0.1,0.2-0.1,0.4-0.1,0.4
	c0,0.1,0.2,0.1,0.3,0.1l0,0.1l-0.7,0.1l0-0.1c0.2,0,0.2-0.2,0.3-0.4l0.6-1.7l0.1,0l1,1.5C37.3,47.9,37.4,48,37.5,48.1L37.5,48.1
	L37.5,48.1z M36.4,47.5l-0.4-0.7l-0.2,0.8L36.4,47.5L36.4,47.5z"/>
<path d="M57.7,43.7c-0.2-0.5-0.6-0.9-1.2-1.1c-0.6-0.1-1.2,0-1.5,0.4c-0.6,0.5-0.2,1.4-0.2,2c0,0.1,0,0.2-0.1,0.3
	c-2.5-0.2-4.9-0.9-7.4-1.1c-0.6-0.1-1.2-0.1-1.7-0.2L44.9,44c-2.2,0.1-4.4,0.2-6.4,0.7c-0.4,0.1-0.9,0.2-1.4,0.3
	c-0.3-0.1-0.6,0.2-0.9,0.1l-0.6,0.1c-0.1,0-0.1,0-0.2,0c-0.3-0.7,0.6-1.2,0.3-1.9c-0.2-0.4-0.7-0.8-1.2-0.7
	c-0.6-0.1-1.1,0.3-1.4,0.7c-0.4,0.9,0.1,1.8,0.3,2.7c0,0.3,0.3,0.6,0,0.8c-0.6-0.4-1.3-0.6-2-0.4c-0.2,0.1-0.6,0-0.7,0.2
	c0.8,0.4,1.7,0.4,2.5,0.3c0.1,0,0.2-0.1,0.3,0c0.1,0.5-0.1,1.1,0.2,1.5c0.3,0.4,0.8,0.5,1.3,0.6c1.6-0.1,3-0.5,4.5-0.9
	c0.2,0,0.4-0.1,0.6-0.1c0.8-0.2,1.6-0.3,2.5-0.3c-0.4,0.5-0.6,1-0.7,1.6c-0.2,0.5,0.4,0.5,0.5,0.8c-0.5,0.2-0.9,0.5-1.4,0.7
	c-1.1,0-2.1,0.4-3.1,0.5c0,0.2,0.4,0.2,0.4,0.4c-0.1,0.2-0.2,0.2-0.3,0.3c0,0.1,0,0.1,0.1,0.1c0.1-0.1,0.3,0,0.4-0.2
	c0.3,0,0.6-0.1,1-0.1c0.3-0.1,0.6-0.1,0.9-0.4c0.4-0.1,0.6-0.4,1-0.5c0.5,0,1-0.2,1.5-0.2v0.1c-0.4,0.6-0.8,1.3-1.2,1.9
	c-0.1,0.1,0,0.2,0.1,0.3c0.2,0.1,0.5,0,0.7-0.1c0.4-0.6,0.7-1.2,1-1.9c0.1-0.6,0.6-0.9,1-1.3c0.1,0,0.2-0.1,0.2,0
	c-0.3,0.4-0.6,0.8-0.8,1.2c-0.1,0.5-0.2,1.1,0.3,1.5c0.2,0.2,0.5,0.1,0.8,0.1c0.7-0.4,1.6,0.2,2.1-0.5c0.3-0.1,0.4,0.3,0.5,0.5
	c0.3,0.1,0.6,0.4,0.9,0.2c0-0.2-0.2-0.4-0.3-0.5c-0.2-0.4-0.5-0.7-0.7-1c-0.1-0.2-0.2-0.4-0.3-0.7c0.3,0.1,0.6,0.3,0.9,0.4
	c0.3,0.1,0.7,0.1,0.9,0.3c0.2,0.3,0.6,0.5,0.9,0.7c0.4,0.2,0.9,0.2,1.4,0.4c0.2,0,0.4,0.2,0.6,0c-0.1-0.1-0.2-0.1-0.3-0.2
	c-0.1-0.2,0.3-0.1,0.4-0.3c0-0.1-0.1-0.1-0.2-0.1c-0.3-0.1-0.9-0.2-1-0.3c-0.2,0-0.4-0.1-0.6-0.2c-1,0-1.6-1-2.5-1.3
	c0.2-0.2,0.5-0.3,0.6-0.6c0.2-0.2,0.2-0.7,0.1-0.9c-0.2-0.5-0.9-0.5-1.3-0.8l0.1-0.1c0.7,0,1.3,0.1,1.9,0.2c1.7,0.2,3.2,0.9,5,0.9
	c1,0,2.2,0.1,2.6-0.9c0.1-0.5,0.2-1.1,0.3-1.6C57.2,45.5,57.8,44.7,57.7,43.7L57.7,43.7z M38.8,51.7l-0.2-0.2
	c0.1-0.2,0.4-0.1,0.6-0.2c0.5-0.1,1-0.3,1.5-0.2C40.1,51.5,39.4,51.6,38.8,51.7L38.8,51.7z M49.7,51.4c0.4,0.2,1.3,0.4,1.9,0.4
	c-0.1,0.2-0.5,0-0.4,0.4c-0.5-0.2-1.2-0.3-1.6-0.7C49.6,51.5,49.7,51.4,49.7,51.4L49.7,51.4z M33.3,44c0.1-0.3,0.1-0.7,0.4-0.9
	c0.4-0.2,1-0.2,1.4,0.1c0.1,0.1,0.2,0.2,0.3,0.3c0.1,0.3-0.1,0.6-0.3,0.8H35c0-0.3,0-0.6,0.1-0.8c0-0.2-0.2-0.2-0.3-0.3
	c-0.3-0.1-0.6,0.1-0.8,0.2c-0.2,0.2-0.3,0.5-0.2,0.8c0.1,0.2,0,0.5,0.1,0.7l-0.1,0.1C33.6,44.6,33.3,44.4,33.3,44L33.3,44z
	 M34.2,44.5c0.3,0.2,0.6,0.1,0.9,0.2c0.1,0.2,0.1,0.4-0.1,0.6c-0.3-0.1-0.7,0-0.8-0.3C34.2,44.8,34.1,44.6,34.2,44.5L34.2,44.5z
	 M34.1,43.9c0.1-0.1,0-0.4,0.2-0.4c0.1,0,0.3,0,0.3,0.1c0,0.2,0,0.4-0.1,0.6C34.3,44.2,34.2,44.1,34.1,43.9L34.1,43.9z M42.3,49.5
	c-0.1-0.6,0.2-1.1,0.6-1.6c0.2-0.1,0.5-0.1,0.8,0c-0.5,0.1-1,0.2-1.1,0.8c0,0.2-0.1,0.4,0.1,0.5c0.2,0.3,0.6,0.2,0.9,0.5
	c0,0.1-0.1,0.2-0.2,0.2C42.9,49.8,42.6,49.8,42.3,49.5L42.3,49.5z M41.7,50.7c0.4-0.2,0.9-0.5,1.3-0.4
	C42.7,50.6,42.1,50.7,41.7,50.7L41.7,50.7z M43.3,50.9c-0.2,0.6-0.5,1.1-0.9,1.7c0,0.1-0.2,0.1-0.3,0.1c0-0.2,0.2-0.4,0.3-0.7
	c0.4-0.5,0.5-1,0.9-1.4C43.5,50.7,43.3,50.8,43.3,50.9L43.3,50.9z M43.8,49.9L43.8,49.9L43.8,49.9L43.8,49.9L43.8,49.9L43.8,49.9
	C43.8,49.9,43.7,49.9,43.8,49.9L43.8,49.9L43.8,49.9z M43.6,49.4c-0.3,0-0.6-0.1-0.8-0.2c-0.2-0.2,0-0.4,0-0.6
	c0.2-0.4,0.9-0.6,1.3-0.2C44,48.8,43.9,49.1,43.6,49.4L43.6,49.4z M44,49.4c0.1-0.2,0.2-0.5,0.3-0.7C44.3,48.9,44.1,49.2,44,49.4
	L44,49.4z M44.2,48c-0.2-0.1-0.3-0.3-0.6-0.3c0.2-0.1,0.4-0.1,0.7,0C44.3,47.8,44.2,47.9,44.2,48L44.2,48z M44.4,48.5L44.4,48.5
	l0-0.2h0V48.5L44.4,48.5z M44.4,49.3c0-0.1,0-0.2,0.1-0.2c0.1-0.1,0.2,0.1,0.2,0.1C44.6,49.3,44.5,49.3,44.4,49.3L44.4,49.3z
	 M44.7,48.2c0.1-0.2,0.1-0.5,0.3-0.7c0.2,0,0.3,0,0.5,0.1c0,0.4,0.5,0.8,0,1.1c-0.2,0.1-0.4,0.2-0.6,0.1
	C44.6,48.7,44.6,48.5,44.7,48.2L44.7,48.2z M45.9,47.7c0-0.2,0.2,0,0.2-0.1l0.5,0C46.4,47.6,46.1,48.3,45.9,47.7L45.9,47.7z
	 M46.8,48c-0.2,0.1-0.4,0.3-0.6,0.4C46.4,48.2,46.6,48,46.8,48L46.8,48z M46.1,49.1L46.1,49.1L46.1,49.1L46.1,49.1L46.1,49.1
	L46.1,49.1z M46.1,50.1c0,0,0,0.1,0,0.1l-0.4-0.3C45.9,49.9,46,50,46.1,50.1L46.1,50.1z M45.7,49.6c0,0,0.1,0,0.2,0H45.7L45.7,49.6z
	 M45.4,49.3c0.1-0.1,0.2-0.3,0.3-0.3c0,0,0,0,0,0.1C45.6,49.2,45.5,49.3,45.4,49.3L45.4,49.3z M45,49.3L45,49.3l0-0.1
	C45.1,49.2,45,49.3,45,49.3L45,49.3z M45.1,50c0.2-0.2,0.4,0.1,0.5,0.3c0.3,0.4,0.9,0.7,0.7,1.3c-0.3,0.3-0.9,0-1.2,0.2
	c-0.2,0-0.5,0-0.6-0.2C44.6,51.1,44.8,50.5,45.1,50L45.1,50z M44.6,50.3l0.1-0.1c-0.1,0.4-0.4,0.9-0.6,1.3
	C44,51,44.4,50.7,44.6,50.3L44.6,50.3z M45.3,52.4c-0.3,0-0.8,0.2-1.2-0.1c0-0.1-0.1-0.2-0.1-0.4c0.3-0.1,0.5,0.2,0.8,0
	c0.4,0,0.8-0.1,1.2,0c0.2,0.1,0.5-0.3,0.5,0.1C46.5,52.6,45.8,52.2,45.3,52.4L45.3,52.4z M46.4,49.9L46.4,49.9L46.4,49.9L46.4,49.9
	L46.4,49.9L46.4,49.9z M46.5,51c0,0.2,0.2,0.2,0.1,0.4C46.5,51.3,46.4,51.1,46.5,51L46.5,51z M46.9,52L46.9,52
	c-0.2,0-0.1-0.2-0.1-0.3C46.9,51.8,47,51.9,46.9,52L46.9,52z M47.8,52.4c0,0.1-0.1,0.1-0.1,0c-0.5-0.7-0.8-1.4-1.1-2.1l0.1,0
	C47.1,51,47.4,51.8,47.8,52.4L47.8,52.4z M48.5,50.8C48.4,50.8,48.4,50.9,48.5,50.8c-0.5,0.1-0.9-0.2-1.3-0.5l0-0.1
	C47.7,50.3,48,50.6,48.5,50.8L48.5,50.8z M48,48.5c0.2,0.1,0.2,0.3,0.2,0.5c0,0.4-0.2,0.7-0.6,0.9c-0.2,0.1-0.5,0.1-0.7,0.1
	c0.4,0,0.9-0.2,1-0.6L48,48.5L48,48.5z M47.6,48.4c0.1,0.2,0.2,0.5,0.2,0.8c-0.2,0.3-0.5,0.3-0.8,0.4c-0.2,0-0.3,0-0.4-0.1
	c0-0.1,0-0.1-0.1-0.2c0.1-0.2-0.4-0.5-0.1-0.7C46.7,48.4,47.3,47.8,47.6,48.4L47.6,48.4z M56.5,47.1c-0.1,0.2,0,0.5-0.2,0.6
	c0,0.3-0.3,0.5-0.5,0.6c-2.1,0.5-4.1-0.2-6.1-0.6c-2.8-0.6-6.1-0.8-9-0.1c-1.3,0.2-2.7,0.6-3.9,0.9c-0.8,0.1-1.7,0.2-2.4,0
	c-0.6-0.3-0.4-1.1-0.6-1.7c0-0.4-0.1-0.8-0.1-1.2c-0.1-0.1-0.1-0.3-0.1-0.5c0.3,0,0.5,0.2,0.8,0.3c1.5,0.3,2.8-0.2,4.1-0.4
	c1.3-0.3,2.7-0.5,4-0.6c1.6,0,3.2-0.1,4.7,0.2c0.5,0,0.9,0.1,1.4,0.2c1,0.1,1.9,0.4,2.9,0.5c0.2,0.1,0.3,0.1,0.5,0.1
	c1.6,0.2,3.3,0.7,4.8,0C56.8,45.9,56.6,46.5,56.5,47.1L56.5,47.1z M56,45c0,0.3-0.2,0.2-0.4,0.3h-0.4c-0.1-0.1-0.1-0.4-0.1-0.5
	C55.4,44.9,55.7,44.9,56,45L56,45z M55.8,44.5c0.2-0.2-0.1-1.3,0.5-0.6c0,0.1,0,0.4-0.1,0.5C56.1,44.5,56,44.6,55.8,44.5L55.8,44.5z
	 M57.2,44.4c-0.2,0.3-0.4,0.5-0.8,0.6c0-0.4,0.4-0.7,0.3-1.2c-0.2-0.3-0.7-0.4-1.1-0.4c-0.2,0.1-0.1,0.3-0.1,0.4l-0.1,0.6
	c-0.4,0-0.4-0.3-0.5-0.6c0-0.4,0.2-0.7,0.5-0.9c0.3-0.1,0.7-0.1,1,0c0.2,0.1,0.5,0.2,0.6,0.4C57.3,43.6,57.3,44.1,57.2,44.4
	L57.2,44.4z"/>
<line class="st1" x1="78.7" y1="37.8" x2="215.4" y2="37.8"/>
<path class="st0" d="M78.7,49.9v-0.2H79c0.2,0,0.4,0,0.5-0.1c0.1-0.1,0.2-0.2,0.2-0.3c0-0.1,0-0.3,0-0.6v-4.6c0-0.4,0-0.6-0.1-0.7
	c0-0.1-0.1-0.2-0.2-0.2c-0.1-0.1-0.3-0.1-0.5-0.1h-0.2v-0.2h3.1c0.8,0,1.5,0.1,2,0.3c0.6,0.3,1.1,0.7,1.4,1.3
	c0.3,0.6,0.5,1.2,0.5,1.9c0,0.5-0.1,0.9-0.2,1.4c-0.2,0.4-0.4,0.8-0.6,1c-0.3,0.3-0.5,0.5-0.9,0.6c-0.3,0.2-0.7,0.3-1.2,0.4
	c-0.2,0-0.5,0.1-1,0.1H78.7L78.7,49.9z M81.4,43.3v5.5c0,0.3,0,0.5,0,0.5c0,0.1,0.1,0.1,0.1,0.1c0.1,0.1,0.2,0.1,0.4,0.1
	c0.6,0,1-0.2,1.3-0.6c0.4-0.5,0.6-1.4,0.6-2.5c0-0.9-0.1-1.6-0.4-2.2c-0.2-0.4-0.5-0.7-0.9-0.9C82.4,43.4,82,43.3,81.4,43.3
	L81.4,43.3z"/>
<path class="st0" d="M90.4,47.3h-2.6c0,0.6,0.2,1.1,0.5,1.5c0.2,0.3,0.5,0.4,0.9,0.4c0.2,0,0.4-0.1,0.6-0.2c0.2-0.1,0.3-0.3,0.5-0.6
	l0.2,0.1c-0.3,0.5-0.6,0.9-0.9,1.1c-0.3,0.2-0.7,0.3-1.1,0.3c-0.7,0-1.3-0.3-1.6-0.8c-0.3-0.4-0.4-1-0.4-1.7c0-0.8,0.2-1.4,0.7-1.9
	c0.4-0.5,0.9-0.7,1.5-0.7c0.5,0,0.9,0.2,1.3,0.6C90.2,45.9,90.4,46.5,90.4,47.3L90.4,47.3z M89.1,47c0-0.6,0-0.9-0.1-1.1
	c-0.1-0.2-0.2-0.4-0.3-0.5c-0.1-0.1-0.2-0.1-0.3-0.1c-0.2,0-0.3,0.1-0.4,0.3c-0.2,0.3-0.3,0.7-0.3,1.3V47H89.1L89.1,47z"/>
<path class="st0" d="M92.7,49.4v1.8c0,0.2,0,0.4,0.1,0.5c0,0.1,0.1,0.2,0.2,0.2c0.1,0,0.2,0.1,0.5,0.1v0.2h-2.7V52
	c0.2,0,0.4-0.1,0.5-0.2c0.1-0.1,0.1-0.3,0.1-0.6v-5.1c0-0.3,0-0.6-0.1-0.6c-0.1-0.1-0.2-0.2-0.5-0.2v-0.2h2v0.6
	c0.2-0.2,0.3-0.4,0.5-0.5c0.3-0.2,0.5-0.2,0.8-0.2c0.4,0,0.7,0.1,1,0.3c0.3,0.2,0.5,0.5,0.7,0.9c0.2,0.4,0.2,0.8,0.2,1.3
	c0,0.5-0.1,0.9-0.2,1.3c-0.2,0.4-0.4,0.7-0.7,0.9c-0.3,0.2-0.6,0.3-1,0.3c-0.3,0-0.5-0.1-0.7-0.2C93,49.8,92.8,49.6,92.7,49.4
	L92.7,49.4z M92.7,48.9c0.3,0.4,0.6,0.6,0.9,0.6c0.2,0,0.3-0.1,0.5-0.3c0.2-0.3,0.3-0.8,0.3-1.7c0-0.8-0.1-1.4-0.3-1.7
	c-0.1-0.2-0.3-0.3-0.5-0.3c-0.3,0-0.6,0.3-0.9,0.8V48.9L92.7,48.9z"/>
<path class="st0" d="M99.1,49.2C98.5,49.7,98,50,97.5,50c-0.3,0-0.5-0.1-0.7-0.3c-0.2-0.2-0.3-0.4-0.3-0.7c0-0.4,0.2-0.7,0.5-1
	c0.3-0.3,1-0.7,2.1-1.2v-0.5c0-0.4,0-0.6-0.1-0.7c0-0.1-0.1-0.2-0.2-0.2c-0.1-0.1-0.2-0.1-0.4-0.1c-0.2,0-0.4,0-0.6,0.1
	c-0.1,0.1-0.1,0.1-0.1,0.2c0,0.1,0,0.2,0.1,0.3c0.1,0.1,0.2,0.3,0.2,0.4c0,0.2-0.1,0.3-0.2,0.4C97.8,47,97.6,47,97.4,47
	c-0.2,0-0.4-0.1-0.5-0.2c-0.1-0.1-0.2-0.3-0.2-0.5c0-0.2,0.1-0.5,0.3-0.7c0.2-0.2,0.5-0.4,0.8-0.5c0.4-0.1,0.7-0.2,1.1-0.2
	c0.5,0,0.8,0.1,1.1,0.3c0.3,0.2,0.4,0.4,0.5,0.6c0,0.1,0.1,0.5,0.1,1v1.9c0,0.2,0,0.4,0,0.4c0,0.1,0,0.1,0.1,0.1c0,0,0.1,0,0.1,0
	c0.1,0,0.2-0.1,0.3-0.2l0.2,0.1c-0.2,0.3-0.4,0.4-0.5,0.6c-0.2,0.1-0.4,0.2-0.6,0.2c-0.3,0-0.5-0.1-0.6-0.2
	C99.2,49.7,99.2,49.5,99.1,49.2L99.1,49.2z M99.1,48.8v-1.6c-0.4,0.2-0.7,0.5-0.9,0.8c-0.1,0.2-0.2,0.4-0.2,0.6
	c0,0.2,0.1,0.3,0.2,0.4c0.1,0.1,0.2,0.1,0.4,0.1C98.7,49.1,98.9,49,99.1,48.8L99.1,48.8z"/>
<path d="M103.4,45.1v1.1c0.3-0.5,0.6-0.8,0.8-1c0.2-0.2,0.5-0.2,0.7-0.2c0.2,0,0.3,0.1,0.5,0.2c0.1,0.1,0.2,0.3,0.2,0.5
	c0,0.2-0.1,0.4-0.2,0.5c-0.1,0.1-0.2,0.2-0.4,0.2c-0.2,0-0.3-0.1-0.5-0.2c-0.1-0.1-0.2-0.2-0.2-0.2c0,0-0.1,0-0.1,0
	c-0.1,0-0.2,0-0.3,0.1c-0.1,0.1-0.2,0.3-0.3,0.5c-0.1,0.3-0.2,0.7-0.2,1.1v1.1l0,0.3c0,0.2,0,0.3,0,0.4c0,0.1,0.1,0.2,0.2,0.2
	c0.1,0,0.2,0.1,0.4,0.1v0.2h-2.6v-0.2c0.2,0,0.4-0.1,0.4-0.2c0.1-0.1,0.1-0.4,0.1-0.8v-2.7c0-0.3,0-0.5,0-0.5c0-0.1-0.1-0.2-0.1-0.2
	c-0.1,0-0.2-0.1-0.3-0.1v-0.2H103.4L103.4,45.1z"/>
<path d="M108,43.3v1.8h1.1v0.5H108v3c0,0.3,0,0.5,0,0.5c0,0.1,0.1,0.1,0.1,0.2c0.1,0,0.1,0.1,0.2,0.1c0.2,0,0.4-0.2,0.6-0.5l0.2,0.1
	c-0.3,0.7-0.7,1-1.4,1c-0.3,0-0.6-0.1-0.8-0.3c-0.2-0.2-0.3-0.4-0.4-0.6c0-0.1-0.1-0.4-0.1-0.9v-2.6h-0.6v-0.2
	c0.4-0.3,0.8-0.6,1.1-1c0.3-0.3,0.6-0.7,0.8-1.1H108L108,43.3z"/>
<path d="M111.6,45.1v0.6c0.3-0.3,0.5-0.5,0.7-0.6c0.2-0.1,0.5-0.2,0.7-0.2c0.3,0,0.6,0.1,0.8,0.2c0.2,0.1,0.4,0.4,0.5,0.7
	c0.3-0.3,0.5-0.5,0.8-0.7c0.3-0.1,0.5-0.2,0.8-0.2c0.3,0,0.6,0.1,0.8,0.2c0.2,0.2,0.3,0.3,0.4,0.6c0.1,0.2,0.1,0.6,0.1,1.1v2
	c0,0.4,0,0.6,0.1,0.7c0.1,0.1,0.2,0.1,0.4,0.2v0.2h-2.5v-0.2c0.2,0,0.3-0.1,0.4-0.2c0.1-0.1,0.1-0.3,0.1-0.6v-2.1
	c0-0.4,0-0.7-0.1-0.8c0-0.1-0.1-0.2-0.2-0.3c-0.1-0.1-0.2-0.1-0.3-0.1c-0.1,0-0.3,0.1-0.4,0.2c-0.2,0.1-0.3,0.3-0.5,0.5v2.6
	c0,0.3,0,0.6,0.1,0.7c0.1,0.1,0.2,0.2,0.5,0.2v0.2h-2.5v-0.2c0.1,0,0.2,0,0.3-0.1c0.1-0.1,0.1-0.1,0.2-0.2c0-0.1,0-0.3,0-0.6v-2.1
	c0-0.4,0-0.7-0.1-0.8c0-0.1-0.1-0.2-0.2-0.3c-0.1-0.1-0.2-0.1-0.3-0.1c-0.1,0-0.3,0-0.4,0.1c-0.2,0.1-0.3,0.3-0.5,0.5v2.6
	c0,0.3,0,0.6,0.1,0.7c0.1,0.1,0.2,0.2,0.4,0.2v0.2h-2.5v-0.2c0.2,0,0.3-0.1,0.4-0.2c0.1-0.1,0.1-0.3,0.1-0.7v-2.7
	c0-0.4,0-0.6-0.1-0.7c-0.1-0.1-0.2-0.1-0.4-0.2v-0.2H111.6L111.6,45.1z"/>
<path class="st0" d="M122.2,47.3h-2.6c0,0.6,0.2,1.1,0.5,1.5c0.2,0.3,0.5,0.4,0.9,0.4c0.2,0,0.4-0.1,0.6-0.2
	c0.2-0.1,0.3-0.3,0.5-0.6l0.2,0.1c-0.3,0.5-0.6,0.9-0.9,1.1c-0.3,0.2-0.7,0.3-1.1,0.3c-0.7,0-1.3-0.3-1.6-0.8
	c-0.3-0.4-0.4-1-0.4-1.7c0-0.8,0.2-1.4,0.7-1.9c0.4-0.5,0.9-0.7,1.5-0.7c0.5,0,0.9,0.2,1.3,0.6C122,45.9,122.2,46.5,122.2,47.3
	L122.2,47.3z M120.9,47c0-0.6,0-0.9-0.1-1.1c-0.1-0.2-0.2-0.4-0.3-0.5c-0.1-0.1-0.2-0.1-0.3-0.1c-0.2,0-0.3,0.1-0.4,0.3
	c-0.2,0.3-0.3,0.7-0.3,1.3V47H120.9L120.9,47z"/>
<path d="M124.7,45.1v0.6c0.2-0.3,0.5-0.5,0.7-0.6c0.2-0.1,0.5-0.2,0.7-0.2c0.3,0,0.6,0.1,0.8,0.3c0.2,0.2,0.3,0.4,0.4,0.6
	c0.1,0.2,0.1,0.6,0.1,1.1v1.9c0,0.4,0,0.6,0.1,0.7c0.1,0.1,0.2,0.1,0.4,0.2v0.2h-2.4v-0.2c0.2,0,0.3-0.1,0.4-0.2
	c0.1-0.1,0.1-0.3,0.1-0.6v-2.1c0-0.4,0-0.6,0-0.7c0-0.1-0.1-0.2-0.2-0.2c-0.1-0.1-0.2-0.1-0.2-0.1c-0.3,0-0.6,0.2-0.8,0.6v2.6
	c0,0.4,0,0.6,0.1,0.7c0.1,0.1,0.2,0.2,0.4,0.2v0.2h-2.4v-0.2c0.2,0,0.3-0.1,0.4-0.2c0.1-0.1,0.1-0.3,0.1-0.7v-2.7
	c0-0.4,0-0.6-0.1-0.7c-0.1-0.1-0.2-0.1-0.4-0.2v-0.2H124.7L124.7,45.1z"/>
<path d="M130.1,43.3v1.8h1.1v0.5h-1.1v3c0,0.3,0,0.5,0,0.5c0,0.1,0.1,0.1,0.1,0.2c0.1,0,0.1,0.1,0.2,0.1c0.2,0,0.4-0.2,0.6-0.5
	l0.2,0.1c-0.3,0.7-0.7,1-1.4,1c-0.3,0-0.6-0.1-0.8-0.3c-0.2-0.2-0.3-0.4-0.4-0.6c0-0.1-0.1-0.4-0.1-0.9v-2.6H128v-0.2
	c0.4-0.3,0.8-0.6,1.1-1c0.3-0.3,0.6-0.7,0.8-1.1H130.1L130.1,43.3z"/>
<path class="st0" d="M136.3,44.9c0.4,0,0.8,0.1,1.2,0.3c0.4,0.2,0.6,0.5,0.8,0.9c0.2,0.4,0.3,0.8,0.3,1.3c0,0.7-0.2,1.3-0.5,1.7
	c-0.4,0.6-1,0.8-1.7,0.8c-0.7,0-1.3-0.3-1.7-0.8c-0.4-0.5-0.6-1.1-0.6-1.8c0-0.7,0.2-1.3,0.6-1.8C135.1,45.2,135.6,44.9,136.3,44.9
	L136.3,44.9z M136.3,45.3c-0.2,0-0.3,0.1-0.5,0.2c-0.1,0.1-0.2,0.4-0.2,0.8c0,0.4-0.1,0.9-0.1,1.6c0,0.4,0,0.7,0.1,1
	c0,0.2,0.1,0.4,0.2,0.6c0.1,0.1,0.3,0.2,0.4,0.2c0.2,0,0.3,0,0.4-0.1c0.1-0.1,0.2-0.3,0.3-0.5c0.1-0.3,0.1-1,0.1-2
	c0-0.6,0-1-0.1-1.2c-0.1-0.2-0.2-0.4-0.3-0.5C136.6,45.3,136.5,45.3,136.3,45.3L136.3,45.3z"/>
<path d="M141.2,45.6v3.3c0,0.3,0,0.5,0.1,0.6c0.1,0.1,0.3,0.2,0.6,0.2v0.2H139v-0.2c0.2,0,0.4,0,0.5-0.1c0.1,0,0.2-0.1,0.2-0.2
	c0-0.1,0.1-0.3,0.1-0.5v-3.3H139v-0.5h0.7v-0.4l0-0.2c0-0.5,0.2-0.9,0.5-1.2c0.4-0.3,0.9-0.5,1.5-0.5c0.4,0,0.7,0.1,0.9,0.2
	c0.2,0.2,0.3,0.3,0.3,0.5c0,0.2-0.1,0.3-0.2,0.4c-0.1,0.1-0.3,0.2-0.5,0.2c-0.2,0-0.3,0-0.4-0.1c-0.1-0.1-0.2-0.2-0.2-0.3
	c0,0,0-0.1,0-0.2c0-0.1,0-0.1,0-0.2c0-0.1,0-0.1-0.1-0.2c-0.1-0.1-0.1-0.1-0.2-0.1c-0.1,0-0.2,0-0.3,0.1c-0.1,0.1-0.1,0.2-0.1,0.4
	l0,0.9v0.6h0.7v0.5H141.2L141.2,45.6z"/>
<path d="M151.9,42.9v0.2c-0.3,0-0.5,0.2-0.7,0.4c-0.1,0.2-0.4,0.6-0.6,1.2l-2.4,5.3H148l-2.4-5.6c-0.3-0.7-0.5-1.1-0.6-1.2
	c-0.1-0.1-0.3-0.2-0.6-0.2v-0.2h3.4v0.2h-0.1c-0.3,0-0.5,0-0.6,0.1c-0.1,0.1-0.1,0.1-0.1,0.2c0,0.1,0,0.1,0,0.2
	c0,0.1,0.1,0.3,0.3,0.7l1.5,3.5l1.4-3.1c0.2-0.4,0.3-0.6,0.3-0.8c0-0.1,0.1-0.2,0.1-0.3c0-0.1,0-0.2-0.1-0.3
	c-0.1-0.1-0.1-0.1-0.2-0.2c-0.1-0.1-0.3-0.1-0.6-0.1v-0.2H151.9L151.9,42.9z"/>
<path class="st0" d="M154.7,47.3h-2.6c0,0.6,0.2,1.1,0.5,1.5c0.2,0.3,0.5,0.4,0.9,0.4c0.2,0,0.4-0.1,0.6-0.2
	c0.2-0.1,0.3-0.3,0.5-0.6l0.2,0.1c-0.3,0.5-0.5,0.9-0.9,1.1c-0.3,0.2-0.7,0.3-1.1,0.3c-0.7,0-1.3-0.3-1.6-0.8
	c-0.3-0.4-0.4-1-0.4-1.7c0-0.8,0.2-1.4,0.6-1.9c0.4-0.5,0.9-0.7,1.5-0.7c0.5,0,0.9,0.2,1.3,0.6C154.5,45.9,154.7,46.5,154.7,47.3
	L154.7,47.3z M153.4,47c0-0.6,0-0.9-0.1-1.1c-0.1-0.2-0.2-0.4-0.3-0.5c-0.1-0.1-0.2-0.1-0.3-0.1c-0.2,0-0.3,0.1-0.4,0.3
	c-0.2,0.3-0.3,0.7-0.3,1.3V47H153.4L153.4,47z"/>
<path d="M157,43.3v1.8h1.1v0.5H157v3c0,0.3,0,0.5,0,0.5c0,0.1,0.1,0.1,0.1,0.2c0.1,0,0.1,0.1,0.2,0.1c0.2,0,0.4-0.2,0.6-0.5l0.2,0.1
	c-0.3,0.7-0.7,1-1.4,1c-0.3,0-0.6-0.1-0.8-0.3c-0.2-0.2-0.3-0.4-0.4-0.6c0-0.1-0.1-0.4-0.1-0.9v-2.6h-0.6v-0.2
	c0.4-0.3,0.8-0.6,1.1-1c0.3-0.3,0.6-0.7,0.8-1.1H157L157,43.3z"/>
<path class="st0" d="M162.7,47.3h-2.6c0,0.6,0.2,1.1,0.5,1.5c0.2,0.3,0.5,0.4,0.9,0.4c0.2,0,0.4-0.1,0.6-0.2
	c0.2-0.1,0.3-0.3,0.5-0.6l0.2,0.1c-0.3,0.5-0.5,0.9-0.9,1.1c-0.3,0.2-0.7,0.3-1.1,0.3c-0.7,0-1.3-0.3-1.6-0.8
	c-0.3-0.4-0.4-1-0.4-1.7c0-0.8,0.2-1.4,0.6-1.9c0.4-0.5,0.9-0.7,1.5-0.7c0.5,0,0.9,0.2,1.3,0.6C162.5,45.9,162.7,46.5,162.7,47.3
	L162.7,47.3z M161.4,47c0-0.6,0-0.9-0.1-1.1c-0.1-0.2-0.2-0.4-0.3-0.5c-0.1-0.1-0.2-0.1-0.3-0.1c-0.2,0-0.3,0.1-0.4,0.3
	c-0.2,0.3-0.3,0.7-0.3,1.3V47H161.4L161.4,47z"/>
<path d="M165,45.1v1.1c0.3-0.5,0.6-0.8,0.8-1c0.2-0.2,0.5-0.2,0.7-0.2c0.2,0,0.3,0.1,0.5,0.2c0.1,0.1,0.2,0.3,0.2,0.5
	c0,0.2-0.1,0.4-0.2,0.5c-0.1,0.1-0.2,0.2-0.4,0.2c-0.2,0-0.3-0.1-0.5-0.2c-0.1-0.1-0.2-0.2-0.2-0.2c0,0-0.1,0-0.1,0
	c-0.1,0-0.2,0-0.3,0.1c-0.1,0.1-0.2,0.3-0.3,0.5c-0.1,0.3-0.2,0.7-0.2,1.1v1.1l0,0.3c0,0.2,0,0.3,0,0.4c0,0.1,0.1,0.2,0.2,0.2
	c0.1,0,0.2,0.1,0.4,0.1v0.2H163v-0.2c0.2,0,0.4-0.1,0.4-0.2c0.1-0.1,0.1-0.4,0.1-0.8v-2.7c0-0.3,0-0.5,0-0.5c0-0.1-0.1-0.2-0.1-0.2
	c-0.1,0-0.2-0.1-0.3-0.1v-0.2H165L165,45.1z"/>
<path class="st0" d="M170,49.2c-0.6,0.5-1.1,0.8-1.6,0.8c-0.3,0-0.5-0.1-0.7-0.3c-0.2-0.2-0.3-0.4-0.3-0.7c0-0.4,0.2-0.7,0.5-1
	c0.3-0.3,1-0.7,2.1-1.2v-0.5c0-0.4,0-0.6-0.1-0.7c0-0.1-0.1-0.2-0.2-0.2c-0.1-0.1-0.2-0.1-0.4-0.1c-0.2,0-0.4,0-0.6,0.1
	c-0.1,0.1-0.1,0.1-0.1,0.2c0,0.1,0,0.2,0.1,0.3c0.1,0.1,0.2,0.3,0.2,0.4c0,0.2-0.1,0.3-0.2,0.4c-0.1,0.1-0.3,0.2-0.5,0.2
	c-0.2,0-0.4-0.1-0.5-0.2c-0.1-0.1-0.2-0.3-0.2-0.5c0-0.2,0.1-0.5,0.3-0.7c0.2-0.2,0.5-0.4,0.8-0.5c0.4-0.1,0.7-0.2,1.1-0.2
	c0.5,0,0.8,0.1,1.1,0.3c0.3,0.2,0.4,0.4,0.5,0.6c0,0.1,0.1,0.5,0.1,1v1.9c0,0.2,0,0.4,0,0.4c0,0.1,0,0.1,0.1,0.1c0,0,0.1,0,0.1,0
	c0.1,0,0.2-0.1,0.3-0.2l0.2,0.1c-0.2,0.3-0.4,0.4-0.5,0.6c-0.2,0.1-0.4,0.2-0.6,0.2c-0.3,0-0.5-0.1-0.6-0.2
	C170.2,49.7,170.1,49.5,170,49.2L170,49.2z M170,48.8v-1.6c-0.4,0.2-0.7,0.5-0.9,0.8c-0.1,0.2-0.2,0.4-0.2,0.6
	c0,0.2,0.1,0.3,0.2,0.4c0.1,0.1,0.2,0.1,0.4,0.1C169.6,49.1,169.8,49,170,48.8L170,48.8z"/>
<path d="M174.4,45.1v0.6c0.2-0.3,0.5-0.5,0.7-0.6c0.2-0.1,0.5-0.2,0.7-0.2c0.3,0,0.6,0.1,0.8,0.3c0.2,0.2,0.3,0.4,0.4,0.6
	c0.1,0.2,0.1,0.6,0.1,1.1v1.9c0,0.4,0,0.6,0.1,0.7c0.1,0.1,0.2,0.1,0.4,0.2v0.2h-2.4v-0.2c0.2,0,0.3-0.1,0.4-0.2
	c0.1-0.1,0.1-0.3,0.1-0.6v-2.1c0-0.4,0-0.6,0-0.7c0-0.1-0.1-0.2-0.2-0.2c-0.1-0.1-0.2-0.1-0.2-0.1c-0.3,0-0.6,0.2-0.8,0.6v2.6
	c0,0.4,0,0.6,0.1,0.7c0.1,0.1,0.2,0.2,0.4,0.2v0.2h-2.4v-0.2c0.2,0,0.3-0.1,0.4-0.2c0.1-0.1,0.1-0.3,0.1-0.7v-2.7
	c0-0.4,0-0.6-0.1-0.7c-0.1-0.1-0.2-0.1-0.4-0.2v-0.2H174.4L174.4,45.1z"/>
<path d="M181.2,45l0.1,1.6h-0.2c-0.2-0.5-0.4-0.8-0.7-1c-0.2-0.2-0.4-0.3-0.7-0.3c-0.1,0-0.3,0-0.4,0.1c-0.1,0.1-0.2,0.2-0.2,0.3
	c0,0.1,0,0.2,0.1,0.3c0.1,0.1,0.4,0.4,0.9,0.7c0.5,0.3,0.8,0.6,1,0.9c0.2,0.2,0.2,0.5,0.2,0.8c0,0.3-0.1,0.5-0.2,0.8
	c-0.1,0.3-0.3,0.5-0.6,0.6c-0.2,0.1-0.5,0.2-0.8,0.2c-0.2,0-0.5-0.1-0.9-0.2c-0.1,0-0.2-0.1-0.2-0.1c-0.1,0-0.2,0.1-0.3,0.3h-0.2
	l-0.1-1.7h0.2c0.2,0.5,0.4,0.8,0.6,1c0.3,0.2,0.5,0.3,0.8,0.3c0.2,0,0.3,0,0.4-0.1c0.1-0.1,0.2-0.2,0.2-0.4c0-0.2-0.1-0.3-0.2-0.4
	c-0.1-0.1-0.3-0.3-0.7-0.5c-0.5-0.4-0.9-0.6-1-0.8c-0.2-0.3-0.3-0.6-0.3-0.9c0-0.4,0.1-0.7,0.4-1c0.3-0.3,0.6-0.5,1.1-0.5
	c0.3,0,0.5,0.1,0.8,0.2c0.1,0.1,0.2,0.1,0.2,0.1c0.1,0,0.1,0,0.1,0c0,0,0.1-0.1,0.2-0.2H181.2L181.2,45z"/>
<path class="st0" d="M182.4,46.2V46c0.4-0.2,0.7-0.4,0.9-0.7c0.2-0.3,0.3-0.6,0.3-0.8c0-0.1,0-0.1,0-0.1c0,0,0,0-0.1,0
	c0,0-0.1,0-0.1,0c-0.1,0.1-0.2,0.1-0.4,0.1c-0.2,0-0.4-0.1-0.5-0.2c-0.1-0.2-0.2-0.3-0.2-0.6c0-0.2,0.1-0.4,0.3-0.6
	c0.2-0.2,0.4-0.3,0.6-0.3c0.3,0,0.5,0.1,0.8,0.3c0.2,0.2,0.3,0.5,0.3,0.9c0,0.5-0.1,0.9-0.4,1.3C183.4,45.7,183,46,182.4,46.2
	L182.4,46.2z"/>
<path class="st0" d="M189.6,47.9h-2.5l-0.3,0.7c-0.1,0.2-0.1,0.4-0.1,0.6c0,0.2,0.1,0.3,0.2,0.4c0.1,0.1,0.3,0.1,0.7,0.1v0.2h-2.3
	v-0.2c0.2,0,0.5-0.1,0.6-0.3c0.2-0.2,0.4-0.5,0.6-1.1l2.5-5.6h0.1l2.5,5.7c0.2,0.5,0.4,0.9,0.6,1c0.1,0.1,0.3,0.2,0.5,0.2v0.2h-3.4
	v-0.2h0.1c0.3,0,0.5,0,0.6-0.1c0.1-0.1,0.1-0.1,0.1-0.2c0-0.1,0-0.1,0-0.2c0,0-0.1-0.2-0.2-0.4L189.6,47.9L189.6,47.9z M189.4,47.5
	l-1-2.4l-1.1,2.4H189.4L189.4,47.5z"/>
<path d="M194.7,45.6v3.3c0,0.3,0,0.5,0.1,0.6c0.1,0.1,0.3,0.2,0.6,0.2v0.2h-2.8v-0.2c0.2,0,0.4,0,0.5-0.1c0.1,0,0.2-0.1,0.2-0.2
	c0-0.1,0.1-0.3,0.1-0.5v-3.3h-0.7v-0.5h0.7v-0.4l0-0.2c0-0.5,0.2-0.9,0.5-1.2c0.4-0.3,0.9-0.5,1.5-0.5c0.4,0,0.7,0.1,0.9,0.2
	c0.2,0.2,0.3,0.3,0.3,0.5c0,0.2-0.1,0.3-0.2,0.4c-0.1,0.1-0.3,0.2-0.5,0.2c-0.2,0-0.3,0-0.4-0.1c-0.1-0.1-0.2-0.2-0.2-0.3
	c0,0,0-0.1,0-0.2c0-0.1,0-0.1,0-0.2c0-0.1,0-0.1-0.1-0.2c-0.1-0.1-0.1-0.1-0.2-0.1c-0.1,0-0.2,0-0.3,0.1c-0.1,0.1-0.1,0.2-0.1,0.4
	l0,0.9v0.6h0.7v0.5H194.7L194.7,45.6z"/>
<path d="M198.3,45.6v3.3c0,0.3,0,0.5,0.1,0.6c0.1,0.1,0.3,0.2,0.6,0.2v0.2h-2.8v-0.2c0.2,0,0.4,0,0.5-0.1c0.1,0,0.2-0.1,0.2-0.2
	c0-0.1,0.1-0.3,0.1-0.5v-3.3h-0.7v-0.5h0.7v-0.4l0-0.2c0-0.5,0.2-0.9,0.5-1.2c0.4-0.3,0.9-0.5,1.5-0.5c0.4,0,0.7,0.1,0.9,0.2
	c0.2,0.2,0.3,0.3,0.3,0.5c0,0.2-0.1,0.3-0.2,0.4c-0.1,0.1-0.3,0.2-0.5,0.2c-0.2,0-0.3,0-0.4-0.1c-0.1-0.1-0.2-0.2-0.2-0.3
	c0,0,0-0.1,0-0.2c0-0.1,0-0.1,0-0.2c0-0.1,0-0.1-0.1-0.2c-0.1-0.1-0.1-0.1-0.2-0.1c-0.1,0-0.2,0-0.3,0.1c-0.1,0.1-0.1,0.2-0.1,0.4
	l0,0.9v0.6h0.7v0.5H198.3L198.3,45.6z"/>
<path class="st0" d="M202.2,49.2c-0.6,0.5-1.1,0.8-1.6,0.8c-0.3,0-0.5-0.1-0.7-0.3c-0.2-0.2-0.3-0.4-0.3-0.7c0-0.4,0.2-0.7,0.5-1
	c0.3-0.3,1-0.7,2.1-1.2v-0.5c0-0.4,0-0.6-0.1-0.7c0-0.1-0.1-0.2-0.2-0.2c-0.1-0.1-0.2-0.1-0.4-0.1c-0.2,0-0.4,0-0.6,0.1
	c-0.1,0.1-0.1,0.1-0.1,0.2c0,0.1,0,0.2,0.1,0.3c0.1,0.1,0.2,0.3,0.2,0.4c0,0.2-0.1,0.3-0.2,0.4c-0.1,0.1-0.3,0.2-0.5,0.2
	c-0.2,0-0.4-0.1-0.5-0.2c-0.1-0.1-0.2-0.3-0.2-0.5c0-0.2,0.1-0.5,0.3-0.7c0.2-0.2,0.5-0.4,0.8-0.5c0.4-0.1,0.7-0.2,1.1-0.2
	c0.5,0,0.8,0.1,1.1,0.3c0.3,0.2,0.4,0.4,0.5,0.6c0,0.1,0.1,0.5,0.1,1v1.9c0,0.2,0,0.4,0,0.4c0,0.1,0,0.1,0.1,0.1c0,0,0.1,0,0.1,0
	c0.1,0,0.2-0.1,0.3-0.2l0.2,0.1c-0.2,0.3-0.4,0.4-0.5,0.6c-0.2,0.1-0.4,0.2-0.6,0.2c-0.3,0-0.5-0.1-0.6-0.2
	C202.3,49.7,202.2,49.5,202.2,49.2L202.2,49.2z M202.2,48.8v-1.6c-0.4,0.2-0.7,0.5-0.9,0.8c-0.1,0.2-0.2,0.4-0.2,0.6
	c0,0.2,0.1,0.3,0.2,0.4c0.1,0.1,0.2,0.1,0.4,0.1C201.8,49.1,202,49,202.2,48.8L202.2,48.8z"/>
<path class="st0" d="M205.9,42.8c0.2,0,0.4,0.1,0.6,0.2c0.2,0.2,0.2,0.3,0.2,0.6c0,0.2-0.1,0.4-0.2,0.6c-0.2,0.2-0.3,0.2-0.6,0.2
	c-0.2,0-0.4-0.1-0.6-0.2c-0.2-0.2-0.2-0.3-0.2-0.6c0-0.2,0.1-0.4,0.2-0.6C205.5,42.8,205.7,42.8,205.9,42.8L205.9,42.8z M206.6,45.1
	v3.8c0,0.3,0,0.6,0.1,0.7c0.1,0.1,0.2,0.1,0.5,0.2v0.2h-2.6v-0.2c0.2,0,0.4-0.1,0.5-0.2c0.1-0.1,0.1-0.3,0.1-0.6v-2.8
	c0-0.3,0-0.6-0.1-0.6c-0.1-0.1-0.2-0.2-0.5-0.2v-0.2H206.6L206.6,45.1z"/>
<path d="M209.6,45.1v1.1c0.3-0.5,0.6-0.8,0.8-1c0.2-0.2,0.5-0.2,0.7-0.2c0.2,0,0.3,0.1,0.5,0.2c0.1,0.1,0.2,0.3,0.2,0.5
	c0,0.2-0.1,0.4-0.2,0.5c-0.1,0.1-0.2,0.2-0.4,0.2c-0.2,0-0.3-0.1-0.5-0.2c-0.1-0.1-0.2-0.2-0.2-0.2c0,0-0.1,0-0.1,0
	c-0.1,0-0.2,0-0.3,0.1c-0.1,0.1-0.2,0.3-0.3,0.5c-0.1,0.3-0.2,0.7-0.2,1.1v1.1l0,0.3c0,0.2,0,0.3,0,0.4c0,0.1,0.1,0.2,0.2,0.2
	c0.1,0,0.2,0.1,0.4,0.1v0.2h-2.6v-0.2c0.2,0,0.3-0.1,0.4-0.2c0.1-0.1,0.1-0.4,0.1-0.8v-2.7c0-0.3,0-0.5,0-0.5c0-0.1-0.1-0.2-0.1-0.2
	c-0.1,0-0.2-0.1-0.3-0.1v-0.2H209.6L209.6,45.1z"/>
<path d="M215.1,45l0.1,1.6H215c-0.2-0.5-0.4-0.8-0.7-1c-0.2-0.2-0.4-0.3-0.7-0.3c-0.1,0-0.3,0-0.4,0.1c-0.1,0.1-0.2,0.2-0.2,0.3
	c0,0.1,0,0.2,0.1,0.3c0.1,0.1,0.4,0.4,0.9,0.7c0.5,0.3,0.8,0.6,1,0.9c0.2,0.2,0.2,0.5,0.2,0.8c0,0.3-0.1,0.5-0.2,0.8
	c-0.1,0.3-0.3,0.5-0.6,0.6c-0.2,0.1-0.5,0.2-0.8,0.2c-0.2,0-0.5-0.1-0.9-0.2c-0.1,0-0.2-0.1-0.2-0.1c-0.1,0-0.2,0.1-0.3,0.3h-0.2
	l-0.1-1.7h0.2c0.2,0.5,0.4,0.8,0.6,1c0.3,0.2,0.5,0.3,0.8,0.3c0.2,0,0.3,0,0.4-0.1c0.1-0.1,0.2-0.2,0.2-0.4c0-0.2-0.1-0.3-0.2-0.4
	c-0.1-0.1-0.3-0.3-0.7-0.5c-0.5-0.4-0.9-0.6-1-0.8c-0.2-0.3-0.3-0.6-0.3-0.9c0-0.4,0.1-0.7,0.4-1c0.3-0.3,0.6-0.5,1.1-0.5
	c0.3,0,0.5,0.1,0.8,0.2c0.1,0.1,0.2,0.1,0.2,0.1c0.1,0,0.1,0,0.1,0c0,0,0.1-0.1,0.2-0.2H215.1L215.1,45z"/>
</svg>
